<?xml version="1.0" encoding="utf-8"?><svg viewBox="0 0 219 50" xmlns="http://www.w3.org/2000/svg" xmlns:xlink="http://www.w3.org/1999/xlink"><style>:root>svg{display:none}:root>svg:target{display:block}</style><svg fill="none" viewBox="0 0 19 14" id="check" xmlns="http://www.w3.org/2000/svg"><path d="M16.356.482a1.554 1.554 0 012.146-.1c.622.547.667 1.478.103 2.082L8.252 13.517c-.28.3-.676.474-1.095.483-.01-.002-.02-.002-.03-.002-.407 0-.796-.157-1.083-.44L.437 8.032a1.44 1.44 0 01.018-2.084 1.552 1.552 0 012.15.018l4.479 4.415L16.356.482z" fill="#0569FF"/></svg><svg fill="none" viewBox="0 0 37 24" id="confidence1" xmlns="http://www.w3.org/2000/svg"><path d="M5.21 15.02c1.669 0 2.352-2.263 3.11-5.357.076-.453.152-.83.228-1.056.607-1.811 1.669-5.131 3.262-6.188.759-.453 1.062-.453 1.062-.453.456.453-.076 3.547-.986 4.905-.303.453-.683.906-1.062 1.358-.531.68-1.062 1.359-1.517 2.113-.076.076-.152.227-.228.302-.38.604-.835 1.434-.759 2.49 0 .377.228.68.531.83.607.453 1.518.227 3.566-.377.38-.151.91-.302 1.138-.302.076 0 .076.075.228.377.152.302.455.755.91 1.057.455.302.91.377 1.442.302 1.213-.302 1.972-1.811 2.73-3.32.153-.302.38-.755.532-.982.076.302.076.83.076 1.51v.075c0 .604 0 1.66.759 2.34.227.226.682.452 1.365.377.759-.076 1.29-.68 1.67-1.132.15-.151.378-.453.53-.528.076.075.076.226.152.301.228.453.455.906.986 1.359 1.442 1.207 2.807.528 3.642.075.38-.15.683-.226.91-.226.607 0 1.67.679 2.352 1.433l1.593-1.282c-.682-.83-2.276-2.189-3.945-2.189-.682 0-1.29.302-1.745.528-.91.453-1.138.453-1.517.152-.152-.152-.303-.453-.38-.68-.227-.603-.91-2.037-2.73-1.433-.607.226-.987.679-1.366 1.132-.076.075-.152.15-.152.226v-.528c0-1.736-.152-3.396-1.366-3.849-.682-.226-1.441-.075-2.2.83-.303.378-.607.906-.91 1.66-.304.604-.91 1.736-1.29 2.113-.076-.075-.152-.15-.152-.302-.227-.452-.682-1.207-1.745-1.358-.379-.075-.91.076-1.972.453-.304.075-.683.226-1.062.302.076-.076.076-.151.152-.227.075-.15.151-.226.227-.377.38-.679.835-1.283 1.366-1.886.379-.453.758-.981 1.138-1.51.834-1.207 2.428-5.734.758-7.47-.758-.603-1.82-1.056-3.793.151-2.276 1.434-3.414 5.056-4.173 7.32-.076.301-.151.679-.303 1.207-.152.754-.683 2.943-1.138 3.697-.228-.603-.455-2.716 1.896-10.337.152-.453.228-.755.228-.906L5.438.91c-.077.151-.228.755-.304 1.132-2.276 7.168-2.58 10.79-1.442 12.3.38.528.835.679 1.518.679zm30.043 1.887l-1.441 1.434c.986.98 1.365 1.81 1.138 2.263-.531 1.057-4.021 1.585-6.373 1.283-1.745-.226-3.566-1.056-5.387-1.735-1.214-.529-2.503-1.057-3.717-1.434-.152-.076-.531-.15-.91-.15-1.063-1.435-2.96-2.416-4.25-2.567-2.579-.301-5.31.529-6.903 2.189-.759.754-2.504 2.49-3.87 2.49-.303 0-.682-.076-1.213-.604-.304-.377-.304-.754-.152-.98.076-.302.303-.604.835-.378l.606-1.962c-1.29-.377-2.503.076-3.186 1.132-.683 1.056-.531 2.49.303 3.395.76.83 1.67 1.283 2.656 1.283 2.2.076 4.324-2.113 5.386-3.093 1.138-1.208 3.263-1.811 5.235-1.66.38.075.91.226 1.366.528-1.67.075-3.338.453-4.173 1.358-.607.68-.758 1.51-.455 2.415.38 1.131 1.442 1.735 2.883 1.886h.607c1.669 0 3.793-.604 4.552-1.886.303-.453.455-.981.455-1.434.986.302 2.049.755 3.11 1.207 1.898.83 3.87 1.585 5.843 1.887 2.124.302 7.283.15 8.497-2.34.683-1.282.227-2.867-1.442-4.527zm-18.208 4.226c-.303.452-1.82 1.132-3.186.98-.38 0-.987-.15-1.214-.603-.076-.227 0-.227 0-.302.53-.528 2.352-.755 3.945-.755h.53c.153.302 0 .529-.075.68z" fill="#fff"/></svg><svg fill="none" viewBox="0 0 32 32" id="confidence2" xmlns="http://www.w3.org/2000/svg"><path d="M22.51 8.706L16 15.216l-2.823-2.824-1.57 1.569L16 18.353l8.078-8.079-1.568-1.568zm6.039-2.588L26.98 7.686c1.726 2.353 2.824 5.177 2.824 8.314 0 7.608-6.196 13.804-13.804 13.804-7.608 0-13.804-6.196-13.804-13.804C2.196 8.392 8.392 2.196 16 2.196c3.451 0 6.667 1.333 9.098 3.451l1.569-1.569C23.843 1.568 20.078 0 16 0 7.216 0 0 7.216 0 16c0 8.784 7.216 16 16 16 8.784 0 16-7.216 16-16 0-3.765-1.333-7.137-3.451-9.882zM14.902 28.157h2.275V25.02h-2.275v3.137zm2.275-24.314h-2.354V6.98h2.354V3.843zM3.843 17.177h3.059v-2.354H3.843v2.354zm21.177-.079h3.058v-2.274H25.02v2.274z" fill="#fff"/></svg><svg fill="none" viewBox="0 0 28 28" id="confidence3" xmlns="http://www.w3.org/2000/svg"><path d="M6.08 0H4.102v6.332h1.98V0zm19.94 26.03H1.98V12.663H0V28h28V12.663h-1.98V26.03zM20.364 2.884H7.636v1.97h12.728v-1.97zm5.02 0v1.97h.636v4.292H1.98V4.854h.707v-1.97H0v8.372h28V2.884h-2.616zM23.828 0h-1.98v6.261h1.98V0zM3.394 23.92h4.242v-2.111H3.394v2.11zm5.657-4.222h4.242v-2.11H9.05v2.11zm-1.415-6.331H3.394v2.11h4.242v-2.11zm-4.242 6.331h4.242v-2.11H3.394v2.11zM9.05 23.92h4.242v-2.111H9.05v2.11zm11.313-4.222h4.242v-2.11h-4.242v2.11zm4.242-6.331h-4.242v2.11h4.242v-2.11zM20.364 23.92h4.242v-2.111h-4.242v2.11zm-7.071-10.553H9.05v2.11h4.242v-2.11zm1.414 6.331h4.242v-2.11h-4.242v2.11zm0 4.222h4.242v-2.111h-4.242v2.11zm4.242-10.553h-4.242v2.11h4.242v-2.11z" fill="#fff"/></svg><svg fill="none" viewBox="0 0 35 33" id="confidence4" xmlns="http://www.w3.org/2000/svg"><path d="M35 12.615l-2.794-.307-7.14 7.077-1.396 1.384 1.63 8.308-7.839-3.846-7.838 3.846 1.63-8.308-6.441-6.461 8.846-.77 3.803-8.307 3.725 8.077 1.785-1.77h-.233l-3.337-7.23L17.461 0l-1.94 4.308-3.337 7.23-7.605.693L0 12.615l3.26 3.231 5.665 5.616-1.397 7.23L6.674 33l3.958-1.923 6.83-3.385 6.829 3.385L28.248 33l-.853-4.308-1.397-7.23 5.665-5.616L35 12.616zm-24.058 2l-1.474 1.539 7.14 6.615c.232.231.465.308.776.308.31 0 .543-.077.776-.308L33.138 8.077l-1.553-1.539-14.279 13.924-6.364-5.847z" fill="#fff"/></svg><svg fill="none" viewBox="0 0 26 26" id="facebook" xmlns="http://www.w3.org/2000/svg"><path d="M26 13c0-7.179-5.821-13-13-13S0 5.821 0 13s5.821 13 13 13l.229-.003v-10.12h-2.793v-3.255h2.793v-2.395c0-2.778 1.695-4.29 4.173-4.29 1.187 0 2.207.089 2.504.128v2.903h-1.708c-1.349 0-1.61.641-1.61 1.581v2.073h3.224l-.42 3.255h-2.804v9.62C22.022 23.94 26 18.935 26 13z" fill="#fff"/></svg><svg fill="none" viewBox="0 0 34 32" id="home" xmlns="http://www.w3.org/2000/svg"><path d="M17 6L5 17v13a1 1 0 001 1h7V20h8v11h7a1 1 0 001-1V17L17 6z" stroke="#fff" stroke-width="2"/><path d="M1 16L17 2l16 14" stroke="#fff" stroke-width="2" stroke-linecap="round"/></svg><svg fill="none" viewBox="0 0 219 50" id="logo" xmlns="http://www.w3.org/2000/svg"><path d="M49 0H0v50h49V0z" fill="#fff"/><path fill-rule="evenodd" clip-rule="evenodd" d="M37.86 7.48a.84.84 0 00-.82-1H27c-9.94 0-18 7-18 19h8c0-7 3-12 11-12h2c1 .02 6.75.94 7.86-6z" fill="#2D4597"/><path fill-rule="evenodd" clip-rule="evenodd" d="M37.86 42.52a.84.84 0 01-.82 1H27c-9.94 0-18-7-18-19h8c0 7 3 12 11 12h2c1-.02 6.75-.94 7.86 6zM36.5 25c-1.16 1.55-2.5 3.5-6 3.5h-6a3.5 3.5 0 110-7h10c2.5 0 5-.5 2 3.5z" fill="#2D4597"/><path d="M60.317 29.66V10.81h8.071v2.695h-5.113v5.258h4.062v2.682h-4.062v5.52h5.113v2.695h-8.07zm9.767-8.07v-2.695h5.376v2.694h-5.376zm7.387 8.07V10.81h2.642v11.936l1.078-4.154 2.418-7.781h3.26V29.66h-2.668V16.384l-1.21 4.64-2.484 8.636h-3.036zm11.488 0V10.81h2.958v8.085h3.365V10.81h3.023V29.66h-3.023v-8.07h-3.365v8.07h-2.958zm10.621 0l3.667-11.12-3.667-7.73h2.971l3.496 7.624v-7.623h2.931v7.623l3.497-7.623h2.971l-3.641 7.65 3.641 11.199h-3.05l-2.695-8.347-.723 1.433v6.914h-2.931v-6.914l-.723-1.46-2.694 8.374h-3.05zm17.114 0V10.81h2.642v11.936l1.078-4.154 2.419-7.781h3.26V29.66h-2.669V16.384l-1.209 4.64-2.484 8.636h-3.037zm11.489 0V10.81h2.957v8.085h3.365V10.81h3.023V29.66h-3.023v-8.07h-3.365v8.07h-2.957zm11.488 0V10.81h2.642v11.936l1.078-4.154 2.418-7.781h3.26V29.66h-2.668V16.384l-1.209 4.64-2.485 8.636h-3.036zm11.488 0V10.81h4.364c1.464 0 2.566.4 3.306 1.197.741.797 1.111 1.954 1.111 3.47v2.445c0 1.516-.37 2.67-1.111 3.463-.74.793-1.842 1.19-3.306 1.19h-1.406v7.085h-2.958zm2.958-9.767h1.406c.491 0 .855-.135 1.091-.407.237-.272.355-.732.355-1.38V15.28c0-.649-.118-1.106-.355-1.374-.236-.267-.6-.4-1.091-.4h-1.406v6.387zm7.19 9.767V10.81h2.642v11.936l1.078-4.154 2.418-7.781h3.26V29.66h-2.668V16.384l-1.209 4.64-2.485 8.636h-3.036zm11.488 0V10.81h2.958v8.085h3.365V10.81h3.023V29.66h-3.023v-8.07h-3.365v8.07h-2.958zm11.515 0V10.81h7.808v2.695h-4.851V29.66h-2.957zm13.959 0V10.81h2.958v8.216l3.877-8.215h2.958l-4.114 8.399 4.114 10.45h-3.036l-2.879-7.506-.92 1.722v5.784h-2.958zm10.884-4.522v-9.806c0-1.507.39-2.672 1.17-3.496.78-.824 1.893-1.236 3.338-1.236 1.446 0 2.557.412 3.333 1.236.775.824 1.163 1.99 1.163 3.496v9.806c0 1.507-.388 2.673-1.163 3.497-.776.823-1.887 1.235-3.333 1.235-1.445 0-2.558-.412-3.338-1.235-.78-.824-1.17-1.99-1.17-3.497zm2.971.184c0 1.245.512 1.867 1.537 1.867 1.017 0 1.525-.622 1.525-1.867V15.148c0-1.235-.508-1.853-1.525-1.853-1.025 0-1.537.618-1.537 1.853v10.174z" fill="#000"/><path d="M60.317 29.66V10.81h8.071v2.695h-5.113v5.258h4.062v2.682h-4.062v5.52h5.113v2.695h-8.07zm9.767-8.07v-2.695h5.376v2.694h-5.376zm7.387 8.07V10.81h2.642v11.936l1.078-4.154 2.418-7.781h3.26V29.66h-2.668V16.384l-1.21 4.64-2.484 8.636h-3.036zm11.488 0V10.81h2.958v8.085h3.365V10.81h3.023V29.66h-3.023v-8.07h-3.365v8.07h-2.958zm10.621 0l3.667-11.12-3.667-7.73h2.971l3.496 7.624v-7.623h2.931v7.623l3.497-7.623h2.971l-3.641 7.65 3.641 11.199h-3.05l-2.695-8.347-.723 1.433v6.914h-2.931v-6.914l-.723-1.46-2.694 8.374h-3.05zm17.114 0V10.81h2.642v11.936l1.078-4.154 2.419-7.781h3.26V29.66h-2.669V16.384l-1.209 4.64-2.484 8.636h-3.037zm11.489 0V10.81h2.957v8.085h3.365V10.81h3.023V29.66h-3.023v-8.07h-3.365v8.07h-2.957zm11.488 0V10.81h2.642v11.936l1.078-4.154 2.418-7.781h3.26V29.66h-2.668V16.384l-1.209 4.64-2.485 8.636h-3.036zm11.488 0V10.81h4.364c1.464 0 2.566.4 3.306 1.197.741.797 1.111 1.954 1.111 3.47v2.445c0 1.516-.37 2.67-1.111 3.463-.74.793-1.842 1.19-3.306 1.19h-1.406v7.085h-2.958zm2.958-9.767h1.406c.491 0 .855-.135 1.091-.407.237-.272.355-.732.355-1.38V15.28c0-.649-.118-1.106-.355-1.374-.236-.267-.6-.4-1.091-.4h-1.406v6.387zm7.19 9.767V10.81h2.642v11.936l1.078-4.154 2.418-7.781h3.26V29.66h-2.668V16.384l-1.209 4.64-2.485 8.636h-3.036zm11.488 0V10.81h2.958v8.085h3.365V10.81h3.023V29.66h-3.023v-8.07h-3.365v8.07h-2.958zm11.515 0V10.81h7.808v2.695h-4.851V29.66h-2.957zm13.959 0V10.81h2.958v8.216l3.877-8.215h2.958l-4.114 8.399 4.114 10.45h-3.036l-2.879-7.506-.92 1.722v5.784h-2.958zm10.884-4.522v-9.806c0-1.507.39-2.672 1.17-3.496.78-.824 1.893-1.236 3.338-1.236 1.446 0 2.557.412 3.333 1.236.775.824 1.163 1.99 1.163 3.496v9.806c0 1.507-.388 2.673-1.163 3.497-.776.823-1.887 1.235-3.333 1.235-1.445 0-2.558-.412-3.338-1.235-.78-.824-1.17-1.99-1.17-3.497zm2.971.184c0 1.245.512 1.867 1.537 1.867 1.017 0 1.525-.622 1.525-1.867V15.148c0-1.235-.508-1.853-1.525-1.853-1.025 0-1.537.618-1.537 1.853v10.174z" fill="#fff"/><path fill-rule="evenodd" clip-rule="evenodd" d="M60.458 42.01v-8.003h3.555v8.003h-.536v-7.523h-2.494v7.523h-.525zm4.465 0v-8.003h1.657c.592 0 1.026.171 1.3.513.276.343.414.82.414 1.435v.865c0 .636-.152 1.111-.455 1.426-.303.314-.77.471-1.398.471h-.993v3.293h-.525zm.525-3.773h.993c.465 0 .803-.11 1.013-.329.21-.22.315-.571.315-1.055v-.937c0-.462-.091-.815-.273-1.06-.183-.246-.488-.37-.916-.37h-1.132v3.751zm3.516 3.773l1.752-8.014h.765l1.78 8.014h-.525l-.396-1.77h-2.495l-.401 1.77h-.48zm.96-2.227h2.332l-1.177-5.179-1.155 5.18zm4.135 2.227v-8.003h1.68c.584 0 1.003.141 1.256.424.253.283.38.71.38 1.284v.452c0 .457-.08.815-.238 1.071-.158.257-.43.426-.818.508.8.16 1.2.731 1.2 1.714v.697c0 1.236-.582 1.853-1.747 1.853H74.06zm.525-.48h1.188c.428 0 .739-.115.932-.346.194-.23.29-.577.29-1.038v-.72c0-.506-.114-.867-.343-1.083-.228-.215-.587-.323-1.074-.323h-.993v3.51zm0-3.99h.893c.49 0 .842-.09 1.054-.268.212-.179.319-.512.319-1v-.513c0-.439-.084-.76-.252-.965-.167-.205-.457-.307-.87-.307h-1.144v3.053zm3.795 4.47v-8.003h.48v6.848l1.166-3.27 1.29-3.578h.63v8.003h-.48v-7.077l-1.2 3.316-1.317 3.761h-.57zm4.336.011v-.48c.145 0 .273-.016.383-.05.11-.033.2-.086.27-.159.07-.072.128-.147.17-.223a.976.976 0 00.098-.307 4.356 4.356 0 00.067-.734l.24-6.061h2.98v8.003h-.535v-7.523h-1.954l-.206 5.57a7.73 7.73 0 01-.05.622 2.671 2.671 0 01-.126.527 1.245 1.245 0 01-.24.433c-.099.11-.23.2-.396.27-.166.071-.364.109-.595.112h-.106zm5.135-.01v-8.004h.524V37.3h.983c.636 0 1.106.157 1.409.471.303.315.455.79.455 1.426v.87c0 1.296-.575 1.943-1.725 1.943H87.85zm.524-.48h1.122c.428 0 .735-.124.921-.37.186-.245.28-.598.28-1.06v-.937c0-.484-.108-.836-.322-1.055-.214-.22-.553-.33-1.018-.33h-.983v3.751zm3.7.48v-8.004h.525v3.762h2.495v-3.762h.536v8.003h-.536V38.25h-2.495v3.761h-.524zm4.466 0v-8.004h.524V37.3h.982c.637 0 1.106.157 1.41.471.303.315.454.79.454 1.426v.87c0 1.296-.574 1.943-1.724 1.943h-1.647zm.524-.48h1.122c.428 0 .735-.124.92-.37.187-.245.28-.598.28-1.06v-.937c0-.484-.107-.836-.321-1.055-.214-.22-.553-.33-1.019-.33h-.982v3.751zm3.6.48v-8.004h.525v8.003h-.525zm1.44 0v-8.004h.48v6.848l1.038-2.913 1.417-3.935h.631v8.003h-.48v-7.077l-1.144 3.181-1.373 3.896h-.569zm.697-9.511h.363c.004.212.079.37.226.474a.937.937 0 00.556.157.942.942 0 00.56-.157c.147-.104.227-.262.238-.474h.351c-.003.301-.111.539-.323.712-.213.173-.488.26-.826.26-.335 0-.609-.087-.821-.26-.212-.173-.32-.41-.324-.712zm5.548 9.51v-8.003h1.68c.584 0 1.003.141 1.256.424.253.283.379.71.379 1.284v.452c0 .457-.079.815-.237 1.071-.158.257-.431.426-.818.508.8.16 1.2.731 1.2 1.714v.697c0 1.236-.582 1.853-1.747 1.853h-1.713zm.525-.48h1.188c.428 0 .739-.115.932-.346.194-.23.291-.577.291-1.038v-.72c0-.506-.115-.867-.344-1.083-.228-.215-.587-.323-1.074-.323h-.993v3.51zm0-3.99h.893c.491 0 .842-.09 1.054-.268.213-.179.319-.512.319-1v-.513c0-.439-.084-.76-.252-.965-.167-.205-.457-.307-.87-.307h-1.144v3.053zm3.795 4.47v-8.003h.524V37.3h.983c.636 0 1.106.157 1.409.471.303.315.455.79.455 1.426v.87c0 1.296-.575 1.943-1.725 1.943h-1.646zm.524-.48h1.122c.428 0 .735-.123.921-.368.186-.246.279-.6.279-1.06v-.938c0-.484-.107-.836-.321-1.055-.214-.22-.553-.33-1.018-.33h-.983v3.751zm3.6.48v-8.003h.525v8.003h-.525zm1.44 0v-8.003h3.237v.48h-2.712v2.93h1.144c.629 0 1.096.14 1.403.421.307.281.461.734.461 1.36v.903c0 1.273-.592 1.91-1.775 1.91h-1.758zm.525-.48h1.233c.435 0 .753-.116.952-.349.199-.232.298-.581.298-1.046v-.971c0-.473-.106-.8-.318-.983-.212-.182-.552-.273-1.021-.273h-1.144v3.622zm3.862-1.473v-4.091c0-.614.146-1.105.438-1.474.292-.368.728-.552 1.309-.552.591 0 1.035.184 1.331.552.296.369.443.86.443 1.474v4.09c0 .615-.147 1.105-.443 1.471-.296.367-.74.55-1.331.55-.581 0-1.017-.183-1.309-.55-.292-.366-.438-.856-.438-1.47zm.524.033c0 .465.099.833.296 1.102.197.27.506.405.927.405.428 0 .742-.136.943-.407.201-.272.301-.638.301-1.1v-4.163c0-.462-.1-.828-.301-1.1-.201-.271-.515-.407-.943-.407-.421 0-.73.135-.927.404-.197.27-.296.638-.296 1.103v4.163zm3.863 1.92v-8.003h1.657c.592 0 1.025.171 1.3.513.276.343.413.82.413 1.435v.865c0 .636-.151 1.111-.454 1.426-.304.314-.77.471-1.398.471h-.994v3.293h-.524zm.524-3.773h.994c.465 0 .802-.11 1.013-.329.21-.22.315-.571.315-1.055v-.937c0-.462-.091-.815-.274-1.06-.182-.246-.487-.37-.915-.37h-1.133v3.751zm5.38.011v-.48h2.104v.48h-2.104zm4.761 3.762v-8.003h.525v3.762h2.494v-3.762h.536v8.003h-.536V38.25h-2.494v3.761h-.525zm4.348 0l1.752-8.014h.765l1.78 8.014h-.525l-.396-1.77h-2.495l-.401 1.77h-.48zm.959-2.227h2.333l-1.177-5.179-1.156 5.18zm4.103.274v-4.091c0-.614.141-1.105.424-1.474.282-.368.716-.552 1.3-.552.584 0 1.018.184 1.3.552.283.369.425.86.425 1.474v.658h-.503v-.697c0-.462-.096-.828-.29-1.1-.193-.271-.5-.407-.921-.407-.42 0-.727.136-.921.407-.193.272-.29.638-.29 1.1v4.163c0 .462.097.826.29 1.094.194.268.501.402.921.402.421 0 .728-.134.921-.402.194-.268.29-.632.29-1.094v-.949h.503v.916c0 .614-.142 1.104-.425 1.47-.282.367-.716.55-1.3.55-.584 0-1.018-.183-1.3-.55-.283-.366-.424-.856-.424-1.47zm4.163-5.57v-.48h3.795v.48h-1.635v7.523h-.525v-7.523h-1.635zm4.537 5.57v-4.091c0-.614.146-1.105.439-1.474.292-.368.728-.552 1.308-.552.592 0 1.036.184 1.331.552.296.369.444.86.444 1.474v4.09c0 .615-.148 1.105-.444 1.471-.295.367-.739.55-1.331.55-.58 0-1.016-.183-1.308-.55-.293-.366-.439-.856-.439-1.47zm.525.033c0 .465.099.833.296 1.102.197.27.506.405.926.405.428 0 .743-.136.943-.407.201-.272.302-.638.302-1.1v-4.163c0-.462-.101-.828-.302-1.1-.2-.271-.515-.407-.943-.407-.42 0-.729.135-.926.404-.197.27-.296.638-.296 1.103v4.163zm3.784 1.92c.127-.193.19-.513.19-.96v-1.244c0-.92.385-1.464 1.155-1.636-.77-.178-1.155-.73-1.155-1.657v-.698c0-1.205.573-1.808 1.719-1.808h1.668v8.003h-.53v-3.577h-.831c-.491 0-.864.101-1.117.304-.253.203-.379.555-.379 1.057v1.256c0 .443-.058.763-.173.96h-.547zm.72-5.397c0 .51.121.86.363 1.052.242.192.615.288 1.122.288h.842v-3.466h-1.127c-.421 0-.726.117-.915.352-.19.234-.285.574-.285 1.02v.754zm3.767 5.397v-8.003h.525v7.523h1.964v-7.523h.531v7.523h1.986l-.011-7.523h.525v7.523h.675v1.557h-.513V42.01h-5.682zm6.91 0l1.752-8.014h.765l1.78 8.014h-.525l-.396-1.77h-2.495l-.402 1.77h-.479zm.959-2.227h2.333l-1.177-5.179-1.156 5.18zm4.058 2.227c.126-.193.19-.513.19-.96v-1.244c0-.92.385-1.464 1.155-1.636-.77-.178-1.155-.73-1.155-1.657v-.698c0-1.205.573-1.808 1.719-1.808h1.668v8.003h-.53v-3.577h-.831c-.492 0-.864.101-1.117.304-.253.203-.379.555-.379 1.057v1.256c0 .443-.058.763-.173.96h-.547zm.72-5.397c0 .51.121.86.363 1.052.241.192.615.288 1.121.288h.843v-3.466h-1.127c-.421 0-.726.117-.916.352-.189.234-.284.574-.284 1.02v.754zm5.48 3.444v-.776h.503v.81c0 .457.096.82.29 1.09.193.27.497.405.91.405.424 0 .734-.134.929-.402.195-.268.293-.632.293-1.094v-1.976h-1.635v-.48h1.635v-1.707c0-.462-.098-.828-.293-1.1-.195-.271-.505-.407-.929-.407-.413 0-.717.136-.91.407-.194.272-.29.638-.29 1.1v.541h-.491v-.502c0-.614.139-1.105.418-1.474.279-.368.711-.552 1.295-.552.58 0 1.013.185 1.298.555.284.37.427.86.427 1.47v4.092c0 .61-.143 1.1-.427 1.468-.285.368-.718.552-1.298.552-.584 0-1.018-.183-1.3-.55-.283-.366-.425-.856-.425-1.47zm4.326 1.953v-8.003h.524v4.23l2.607-4.23h.547l-2.283 3.728 2.433 4.275h-.547l-2.21-3.761-.547.87v2.891h-.524zm4.582-1.953v-4.091c0-.614.146-1.105.438-1.474.292-.368.728-.552 1.309-.552.591 0 1.035.184 1.331.552.296.369.443.86.443 1.474v4.09c0 .615-.147 1.105-.443 1.471-.296.367-.74.55-1.331.55-.581 0-1.017-.183-1.309-.55-.292-.366-.438-.856-.438-1.47zm.524.033c0 .465.099.833.296 1.102.197.27.506.405.927.405.428 0 .742-.136.943-.407.201-.272.301-.638.301-1.1v-4.163c0-.462-.1-.828-.301-1.1-.201-.271-.515-.407-.943-.407-.421 0-.73.135-.927.404-.197.27-.296.638-.296 1.103v4.163zM196 42.01v-8.003h.524v3.762h2.495v-3.762h.536v8.003h-.536V38.25h-2.495v3.761H196zm4.431-1.953v-4.091c0-.614.146-1.105.438-1.474.292-.368.728-.552 1.309-.552.591 0 1.035.184 1.331.552.296.369.444.86.444 1.474v4.09c0 .615-.148 1.105-.444 1.471-.296.367-.74.55-1.331.55-.581 0-1.017-.183-1.309-.55-.292-.366-.438-.856-.438-1.47zm.524.033c0 .465.099.833.296 1.102.197.27.506.405.927.405.428 0 .742-.136.943-.407.201-.272.301-.638.301-1.1v-4.163c0-.462-.1-.828-.301-1.1-.201-.271-.515-.407-.943-.407-.421 0-.73.135-.927.404-.197.27-.296.638-.296 1.103v4.163zm3.863 1.92v-8.003h.753l1.68 7.077 1.669-7.077h.753v8.003h-.502V34.9l-1.669 7.099h-.525l-1.691-7.077v7.088h-.468zm5.77 0v-8.003h.48v6.848l1.167-3.27 1.289-3.578h.631v8.003h-.48v-7.077l-1.2 3.316-1.317 3.761h-.57zm4.387 0c.127-.193.19-.513.19-.96v-1.244c0-.92.385-1.464 1.155-1.636-.77-.178-1.155-.73-1.155-1.657v-.698c0-1.205.573-1.808 1.719-1.808h1.669v8.003h-.531v-3.577h-.831c-.491 0-.863.101-1.116.304-.253.203-.38.555-.38 1.057v1.256c0 .443-.058.763-.173.96h-.547zm.72-5.397c0 .51.121.86.363 1.052.242.192.616.288 1.122.288h.842v-3.466h-1.127c-.42 0-.726.117-.915.352-.19.234-.285.574-.285 1.02v.754z" fill="#fff"/></svg><svg fill="none" viewBox="0 0 30 24" id="mail" xmlns="http://www.w3.org/2000/svg"><rect x="1" y="1" width="28" height="22" rx="2" stroke="#fff" stroke-width="2"/><path d="M1.607 22.286l9.99-10.858m16.796 10.286L18.95 11.43M2.143 1.714l10.952 10.972a3 3 0 004.29-.043L27.856 1.714" stroke="#fff" stroke-width="2"/></svg><svg fill="none" viewBox="0 0 30 30" id="market" xmlns="http://www.w3.org/2000/svg"><path d="M7.364 23.91a2.545 2.545 0 100 5.09 2.545 2.545 0 000-5.09zm0 0h17.818m-17.818 0L4.818 1H1m24.182 22.91a2.545 2.545 0 100 5.09 2.545 2.545 0 000-5.09zM5.384 6.09L29 8.637l-1.131 10.182H6.798" stroke="#fff" stroke-width="2" stroke-miterlimit="10" stroke-linecap="round" stroke-linejoin="round"/></svg><svg fill="none" viewBox="0 0 46 8" id="menu-arrow" xmlns="http://www.w3.org/2000/svg"><path d="M45.354 4.354a.5.5 0 000-.708L42.172.464a.5.5 0 10-.707.708L44.293 4l-2.828 2.828a.5.5 0 10.707.708l3.182-3.182zM0 4.5h45v-1H0v1z" fill="#fff"/></svg><svg fill="none" viewBox="0 0 29 29" id="search" xmlns="http://www.w3.org/2000/svg"><path d="M21.09 19.673a1 1 0 00-1.413 1.414l1.414-1.414zm.209 3.037a1 1 0 001.414-1.415L21.3 22.71zm6.142 4.73l.707.708a1.08 1.08 0 00.025-.027l-.732-.68zm-2.811 0l-.708.708.707-.707zm-2.008-2.007l.706-.707-.706.707zm2.81-2.81l-.706.706.707-.707zm2.009 2.007l.707-.707-.707.707zM19.685 5.034c4.045 4.045 4.045 10.603 0 14.648l1.414 1.414c4.826-4.826 4.826-12.65 0-17.477l-1.415 1.415zm0 14.648c-4.046 4.045-10.605 4.045-14.65 0L3.62 21.096c4.827 4.826 12.652 4.826 17.479 0l-1.415-1.415zm-14.65 0C.988 15.636.988 9.079 5.034 5.034L3.62 3.619c-4.827 4.826-4.827 12.65 0 17.477l1.414-1.415zm0-14.648c4.045-4.045 10.604-4.045 14.65 0l1.414-1.415c-4.827-4.825-12.652-4.825-17.479 0l1.414 1.415zm14.642 16.053l1.622 1.623 1.414-1.415-1.622-1.622-1.414 1.414zm7.057 5.647c-.356.355-1.042.355-1.398 0l-1.414 1.414c1.137 1.136 3.09 1.136 4.226 0l-1.414-1.414zm-1.398 0l-2.008-2.008-1.414 1.414 2.008 2.008 1.415-1.414zm-2.008-2.008c-.355-.355-.355-1.041 0-1.397l-1.414-1.414c-1.136 1.136-1.136 3.089 0 4.225l1.414-1.414zm0-1.397c.356-.355 1.042-.355 1.398 0l1.414-1.414c-1.137-1.136-3.09-1.136-4.226 0l1.414 1.414zm1.398 0l2.008 2.008 1.414-1.414-2.008-2.008-1.414 1.414zm2.008 2.008c.341.341.377.989-.026 1.423l1.465 1.361c1.089-1.172 1.125-3.048-.025-4.198l-1.414 1.414zM19.095 12.23a6.867 6.867 0 01-6.868 6.867v2a8.867 8.867 0 008.868-8.867h-2zm-6.868 6.867A6.867 6.867 0 015.36 12.23h-2a8.867 8.867 0 008.868 8.867v-2zM5.36 12.23a6.867 6.867 0 016.868-6.866v-2a8.867 8.867 0 00-8.868 8.866h2zm6.868-6.866a6.867 6.867 0 016.868 6.866h2a8.867 8.867 0 00-8.868-8.866v2z" fill="#fff"/></svg><svg fill="none" viewBox="0 0 29 20" id="utube" xmlns="http://www.w3.org/2000/svg"><path d="M28.402 3.13A3.606 3.606 0 0025.848.612C23.577 0 14.5 0 14.5 0S5.422 0 3.153.588A3.679 3.679 0 00.597 3.13C0 5.365 0 10 0 10s0 4.659.597 6.87a3.607 3.607 0 002.556 2.518C5.446 20 14.5 20 14.5 20s9.077 0 11.347-.588a3.606 3.606 0 002.556-2.518c.597-2.235.597-6.87.597-6.87s.024-4.66-.598-6.894zM11.61 14.282V5.718L19.158 10l-7.548 4.282z" fill="#fff"/></svg></svg>