<?xml version="1.0" encoding="utf-8"?><svg viewBox="0 0 219 62" xmlns="http://www.w3.org/2000/svg" xmlns:xlink="http://www.w3.org/1999/xlink"><style>:root>svg{display:none}:root>svg:target{display:block}</style><svg fill="none" viewBox="0 0 92 62" id="before-market" xmlns="http://www.w3.org/2000/svg"><g filter="url(#aafilter0_d)"><path d="M12 3h80v56H12L3.5 31 12 3z" fill="#BAD700"/></g><defs><filter id="aafilter0_d" x=".5" y="0" width="94.5" height="62" filterUnits="userSpaceOnUse" color-interpolation-filters="sRGB"><feFlood flood-opacity="0" result="BackgroundImageFix"/><feColorMatrix in="SourceAlpha" values="0 0 0 0 0 0 0 0 0 0 0 0 0 0 0 0 0 0 127 0"/><feOffset/><feGaussianBlur stdDeviation="1.5"/><feColorMatrix values="0 0 0 0 0 0 0 0 0 0 0 0 0 0 0 0 0 0 0.25 0"/><feBlend in2="BackgroundImageFix" result="effect1_dropShadow"/><feBlend in="SourceGraphic" in2="effect1_dropShadow" result="shape"/></filter></defs></svg><svg fill="none" viewBox="0 0 19 14" id="check" xmlns="http://www.w3.org/2000/svg"><path d="M16.356.482a1.554 1.554 0 012.146-.1c.622.547.667 1.478.103 2.082L8.252 13.517c-.28.3-.676.474-1.095.483-.01-.002-.02-.002-.03-.002-.407 0-.796-.157-1.083-.44L.437 8.032a1.44 1.44 0 01.018-2.084 1.552 1.552 0 012.15.018l4.479 4.415L16.356.482z" fill="#0569FF"/></svg><svg fill="none" viewBox="0 0 16 16" id="close" xmlns="http://www.w3.org/2000/svg"><path d="M1 1l13.682 13.682M1 15L15 1" stroke="#FE3333" stroke-width="2"/></svg><svg fill="none" viewBox="0 0 24 17" id="cold" xmlns="http://www.w3.org/2000/svg"><path d="M4.795 4.857c1.696 0 2.592-.907 3.246-1.57.588-.595.877-.858 1.55-.858.674 0 .963.263 1.551.858.654.663 1.55 1.57 3.247 1.57 1.698 0 2.596-.907 3.252-1.57.59-.595.879-.858 1.554-.858.676 0 .965.263 1.554.858.655.663 1.553 1.57 3.251 1.57V2.43c-.676 0-.965-.264-1.554-.859C21.791.907 20.893 0 19.196 0c-1.699 0-2.595.907-3.252 1.569-.589.596-.877.86-1.555.86-.674 0-.962-.264-1.55-.859C12.185.907 11.289 0 9.592 0 7.895 0 6.998.907 6.344 1.57c-.588.595-.876.859-1.549.859-.673 0-.961-.264-1.549-.859C2.592.907 1.696 0 0 0v2.429c.673 0 .961.263 1.55.858.653.663 1.55 1.57 3.245 1.57zm0 6.072c1.696 0 2.592-.908 3.246-1.57.588-.595.877-.859 1.55-.859.674 0 .963.264 1.551.858.654.663 1.55 1.57 3.247 1.57 1.698 0 2.596-.907 3.252-1.57.59-.595.879-.858 1.554-.858.676 0 .965.264 1.554.858.655.663 1.553 1.57 3.251 1.57V8.5c-.676 0-.965-.264-1.554-.859-.655-.662-1.553-1.57-3.25-1.57-1.699 0-2.595.908-3.252 1.57-.589.595-.877.859-1.555.859-.674 0-.962-.264-1.55-.859-.654-.662-1.55-1.57-3.247-1.57-1.697 0-2.594.908-3.248 1.57-.588.595-.876.859-1.549.859-.673 0-.961-.264-1.549-.859-.654-.662-1.55-1.57-3.246-1.57V8.5c.673 0 .961.264 1.55.858.653.663 1.55 1.57 3.245 1.57zm0 6.071c1.696 0 2.592-.907 3.246-1.57.588-.595.877-.859 1.55-.859.674 0 .963.264 1.551.859.654.663 1.55 1.57 3.247 1.57 1.698 0 2.596-.907 3.252-1.57.59-.595.879-.859 1.554-.859.676 0 .965.264 1.554.859.655.663 1.553 1.57 3.251 1.57v-2.429c-.676 0-.965-.263-1.554-.858-.655-.663-1.553-1.57-3.25-1.57-1.699 0-2.595.907-3.252 1.569-.589.596-.877.86-1.555.86-.674 0-.962-.264-1.55-.86-.654-.662-1.55-1.57-3.247-1.57-1.697 0-2.594.908-3.248 1.57-.588.596-.876.86-1.549.86-.673 0-.961-.264-1.549-.86-.654-.662-1.55-1.57-3.246-1.57v2.43c.673 0 .961.263 1.55.858.653.663 1.55 1.57 3.245 1.57z" fill="#00A3FF"/></svg><svg fill="none" viewBox="0 0 37 24" id="confidence1" xmlns="http://www.w3.org/2000/svg"><path d="M5.21 15.02c1.669 0 2.352-2.263 3.11-5.357.076-.453.152-.83.228-1.056.607-1.811 1.669-5.131 3.262-6.188.759-.453 1.062-.453 1.062-.453.456.453-.076 3.547-.986 4.905-.303.453-.683.906-1.062 1.358-.531.68-1.062 1.359-1.517 2.113-.076.076-.152.227-.228.302-.38.604-.835 1.434-.759 2.49 0 .377.228.68.531.83.607.453 1.518.227 3.566-.377.38-.151.91-.302 1.138-.302.076 0 .076.075.228.377.152.302.455.755.91 1.057.455.302.91.377 1.442.302 1.213-.302 1.972-1.811 2.73-3.32.153-.302.38-.755.532-.982.076.302.076.83.076 1.51v.075c0 .604 0 1.66.759 2.34.227.226.682.452 1.365.377.759-.076 1.29-.68 1.67-1.132.15-.151.378-.453.53-.528.076.075.076.226.152.301.228.453.455.906.986 1.359 1.442 1.207 2.807.528 3.642.075.38-.15.683-.226.91-.226.607 0 1.67.679 2.352 1.433l1.593-1.282c-.682-.83-2.276-2.189-3.945-2.189-.682 0-1.29.302-1.745.528-.91.453-1.138.453-1.517.152-.152-.152-.303-.453-.38-.68-.227-.603-.91-2.037-2.73-1.433-.607.226-.987.679-1.366 1.132-.076.075-.152.15-.152.226v-.528c0-1.736-.152-3.396-1.366-3.849-.682-.226-1.441-.075-2.2.83-.303.378-.607.906-.91 1.66-.304.604-.91 1.736-1.29 2.113-.076-.075-.152-.15-.152-.302-.227-.452-.682-1.207-1.745-1.358-.379-.075-.91.076-1.972.453-.304.075-.683.226-1.062.302.076-.076.076-.151.152-.227.075-.15.151-.226.227-.377.38-.679.835-1.283 1.366-1.886.379-.453.758-.981 1.138-1.51.834-1.207 2.428-5.734.758-7.47-.758-.603-1.82-1.056-3.793.151-2.276 1.434-3.414 5.056-4.173 7.32-.076.301-.151.679-.303 1.207-.152.754-.683 2.943-1.138 3.697-.228-.603-.455-2.716 1.896-10.337.152-.453.228-.755.228-.906L5.438.91c-.077.151-.228.755-.304 1.132-2.276 7.168-2.58 10.79-1.442 12.3.38.528.835.679 1.518.679zm30.043 1.887l-1.441 1.434c.986.98 1.365 1.81 1.138 2.263-.531 1.057-4.021 1.585-6.373 1.283-1.745-.226-3.566-1.056-5.387-1.735-1.214-.529-2.503-1.057-3.717-1.434-.152-.076-.531-.15-.91-.15-1.063-1.435-2.96-2.416-4.25-2.567-2.579-.301-5.31.529-6.903 2.189-.759.754-2.504 2.49-3.87 2.49-.303 0-.682-.076-1.213-.604-.304-.377-.304-.754-.152-.98.076-.302.303-.604.835-.378l.606-1.962c-1.29-.377-2.503.076-3.186 1.132-.683 1.056-.531 2.49.303 3.395.76.83 1.67 1.283 2.656 1.283 2.2.076 4.324-2.113 5.386-3.093 1.138-1.208 3.263-1.811 5.235-1.66.38.075.91.226 1.366.528-1.67.075-3.338.453-4.173 1.358-.607.68-.758 1.51-.455 2.415.38 1.131 1.442 1.735 2.883 1.886h.607c1.669 0 3.793-.604 4.552-1.886.303-.453.455-.981.455-1.434.986.302 2.049.755 3.11 1.207 1.898.83 3.87 1.585 5.843 1.887 2.124.302 7.283.15 8.497-2.34.683-1.282.227-2.867-1.442-4.527zm-18.208 4.226c-.303.452-1.82 1.132-3.186.98-.38 0-.987-.15-1.214-.603-.076-.227 0-.227 0-.302.53-.528 2.352-.755 3.945-.755h.53c.153.302 0 .529-.075.68z" fill="#fff"/></svg><svg fill="none" viewBox="0 0 32 32" id="confidence2" xmlns="http://www.w3.org/2000/svg"><path d="M22.51 8.706L16 15.216l-2.823-2.824-1.57 1.569L16 18.353l8.078-8.079-1.568-1.568zm6.039-2.588L26.98 7.686c1.726 2.353 2.824 5.177 2.824 8.314 0 7.608-6.196 13.804-13.804 13.804-7.608 0-13.804-6.196-13.804-13.804C2.196 8.392 8.392 2.196 16 2.196c3.451 0 6.667 1.333 9.098 3.451l1.569-1.569C23.843 1.568 20.078 0 16 0 7.216 0 0 7.216 0 16c0 8.784 7.216 16 16 16 8.784 0 16-7.216 16-16 0-3.765-1.333-7.137-3.451-9.882zM14.902 28.157h2.275V25.02h-2.275v3.137zm2.275-24.314h-2.354V6.98h2.354V3.843zM3.843 17.177h3.059v-2.354H3.843v2.354zm21.177-.079h3.058v-2.274H25.02v2.274z" fill="#fff"/></svg><svg fill="none" viewBox="0 0 28 28" id="confidence3" xmlns="http://www.w3.org/2000/svg"><path d="M6.08 0H4.102v6.332h1.98V0zm19.94 26.03H1.98V12.663H0V28h28V12.663h-1.98V26.03zM20.364 2.884H7.636v1.97h12.728v-1.97zm5.02 0v1.97h.636v4.292H1.98V4.854h.707v-1.97H0v8.372h28V2.884h-2.616zM23.828 0h-1.98v6.261h1.98V0zM3.394 23.92h4.242v-2.111H3.394v2.11zm5.657-4.222h4.242v-2.11H9.05v2.11zm-1.415-6.331H3.394v2.11h4.242v-2.11zm-4.242 6.331h4.242v-2.11H3.394v2.11zM9.05 23.92h4.242v-2.111H9.05v2.11zm11.313-4.222h4.242v-2.11h-4.242v2.11zm4.242-6.331h-4.242v2.11h4.242v-2.11zM20.364 23.92h4.242v-2.111h-4.242v2.11zm-7.071-10.553H9.05v2.11h4.242v-2.11zm1.414 6.331h4.242v-2.11h-4.242v2.11zm0 4.222h4.242v-2.111h-4.242v2.11zm4.242-10.553h-4.242v2.11h4.242v-2.11z" fill="#fff"/></svg><svg fill="none" viewBox="0 0 35 33" id="confidence4" xmlns="http://www.w3.org/2000/svg"><path d="M35 12.615l-2.794-.307-7.14 7.077-1.396 1.384 1.63 8.308-7.839-3.846-7.838 3.846 1.63-8.308-6.441-6.461 8.846-.77 3.803-8.307 3.725 8.077 1.785-1.77h-.233l-3.337-7.23L17.461 0l-1.94 4.308-3.337 7.23-7.605.693L0 12.615l3.26 3.231 5.665 5.616-1.397 7.23L6.674 33l3.958-1.923 6.83-3.385 6.829 3.385L28.248 33l-.853-4.308-1.397-7.23 5.665-5.616L35 12.616zm-24.058 2l-1.474 1.539 7.14 6.615c.232.231.465.308.776.308.31 0 .543-.077.776-.308L33.138 8.077l-1.553-1.539-14.279 13.924-6.364-5.847z" fill="#fff"/></svg><svg fill="none" viewBox="0 0 21 20" id="counters__more" xmlns="http://www.w3.org/2000/svg"><path d="M2.266 14.06a8.923 8.923 0 003.915 3.979 8.707 8.707 0 005.472.832 8.797 8.797 0 004.887-2.64 9.068 9.068 0 002.388-5.08 9.138 9.138 0 00-1.044-5.53 8.904 8.904 0 00-4.068-3.815 8.7 8.7 0 00-5.5-.608c-1.85.4-3.368 1.313-4.62 2.755a7.62 7.62 0 00-1.22 1.78" stroke="#878E97" stroke-width="2" stroke-linecap="round" stroke-linejoin="round"/><path d="M6.931 5.813l-5.04.907L1 1.59" stroke="#878E97" stroke-width="2" stroke-linecap="round" stroke-linejoin="round"/></svg><svg fill="none" viewBox="0 0 26 26" id="facebook" xmlns="http://www.w3.org/2000/svg"><path d="M26 13c0-7.179-5.821-13-13-13S0 5.821 0 13s5.821 13 13 13l.229-.003v-10.12h-2.793v-3.255h2.793v-2.395c0-2.778 1.695-4.29 4.173-4.29 1.187 0 2.207.089 2.504.128v2.903h-1.708c-1.349 0-1.61.641-1.61 1.581v2.073h3.224l-.42 3.255h-2.804v9.62C22.022 23.94 26 18.935 26 13z" fill="#fff"/></svg><svg fill="none" viewBox="0 0 20 20" id="filt" xmlns="http://www.w3.org/2000/svg"><path d="M8.35 10.435V20l3.85-2.778v-6.807a1 1 0 01.294-.708l7.212-7.192A1 1 0 0020 1.807V1a1 1 0 00-1-1H1a1 1 0 00-1 1v.787a1 1 0 00.318.732l7.714 7.184a1 1 0 01.318.732z" fill="#878E97"/></svg><svg fill="none" viewBox="0 0 38 48" id="fire" xmlns="http://www.w3.org/2000/svg"><g clip-path="url(#alclip0)"><path d="M31.864 17.972c-8.063-9.01-9.898-16.013-9.898-16.013s-1.39.628-2.966 2.072l-1.983 22.95L19 46.594c9.723 0 17.61-7.978 17.61-17.813 0-4.069-2.243-8.015-4.746-10.81z" fill="#FF6200"/><path d="M16.034 7.969c-1.01 2.043-1.242 4.34-1.233 6.103a3.567 3.567 0 01-2.845 3.525 3.52 3.52 0 01-3.198-.975l-1.63-1.65s-2.42 3.365-2.828 4.003a17.836 17.836 0 00-2.9 9.938c.064 9.815 7.896 17.68 17.6 17.68V4.032a13.395 13.395 0 00-2.966 3.938z" fill="#FD7D21"/><path d="M32.893 17.025c-4.022-4.49-6.413-8.456-7.71-10.978-1.41-2.738-1.864-4.434-1.873-4.453L22.893 0 21.4.675c-.084.037-1.113.506-2.4 1.528l-.992 1.763L19 6.037a12.857 12.857 0 012.215-1.987c1.048 2.69 3.698 8.26 9.62 14.869 1.317 1.472 4.385 5.381 4.385 9.862 0 9.047-7.276 16.407-16.22 16.407l-.991 1.818L19 48c10.473 0 19-8.625 19-19.219 0-3.843-1.863-8.128-5.107-11.756z" fill="#FFB62D"/><path d="M7.563 40.434c-3.05-3.065-4.745-7.153-4.782-11.53a16.417 16.417 0 012.678-9.16c.213-.328 1.084-1.556 1.844-2.616l.473.478a4.88 4.88 0 004.449 1.36c2.308-.47 3.976-2.532 3.967-4.913-.01-1.472.176-3.619 1.093-5.466a11.891 11.891 0 011.724-2.559V2.194c-1.362 1.068-3.03 2.737-4.217 5.137-1.158 2.353-1.39 4.96-1.38 6.74a2.172 2.172 0 01-1.725 2.138 2.125 2.125 0 01-1.937-.59l-2.78-2.813-.955 1.332c-.102.14-2.437 3.403-2.864 4.05A19.263 19.263 0 000 28.922c.037 5.119 2.03 9.919 5.607 13.51C9.185 46.021 13.94 48 19 48v-2.813a16.048 16.048 0 01-11.437-4.753z" fill="#FDCB02"/><path d="M19 19.331h-.028l-2.317 11.006 2.317 11.007H19c6.015 0 10.881-4.931 10.881-11.007 0-6.075-4.866-11.006-10.88-11.006z" fill="#ED3800"/><path d="M8.12 30.347c0 6.066 4.856 10.997 10.852 11.006V19.331c-5.996.019-10.853 4.94-10.853 11.016z" fill="#FF4B00"/></g><defs><clipPath id="alclip0"><path fill="#fff" d="M0 0h38v48H0z"/></clipPath></defs></svg><svg fill="none" viewBox="0 0 34 32" id="home" xmlns="http://www.w3.org/2000/svg"><path d="M17 6L5 17v13a1 1 0 001 1h7V20h8v11h7a1 1 0 001-1V17L17 6z" stroke="#fff" stroke-width="2"/><path d="M1 16L17 2l16 14" stroke="#fff" stroke-width="2" stroke-linecap="round"/></svg><svg fill="none" viewBox="0 0 24 17" id="hot" xmlns="http://www.w3.org/2000/svg"><path d="M4.795 4.857c1.696 0 2.592-.907 3.246-1.57.588-.595.877-.858 1.55-.858.674 0 .963.263 1.551.858.654.663 1.55 1.57 3.247 1.57 1.698 0 2.596-.907 3.252-1.57.59-.595.879-.858 1.554-.858.676 0 .965.263 1.554.858.655.663 1.553 1.57 3.251 1.57V2.43c-.676 0-.965-.264-1.554-.859C21.791.907 20.893 0 19.196 0c-1.699 0-2.595.907-3.252 1.569-.589.596-.877.86-1.555.86-.674 0-.962-.264-1.55-.859C12.185.907 11.289 0 9.592 0 7.895 0 6.998.907 6.344 1.57c-.588.595-.876.859-1.549.859-.673 0-.961-.264-1.549-.859C2.592.907 1.696 0 0 0v2.429c.673 0 .961.263 1.55.858.653.663 1.55 1.57 3.245 1.57zm0 6.072c1.696 0 2.592-.908 3.246-1.57.588-.595.877-.859 1.55-.859.674 0 .963.264 1.551.858.654.663 1.55 1.57 3.247 1.57 1.698 0 2.596-.907 3.252-1.57.59-.595.879-.858 1.554-.858.676 0 .965.264 1.554.858.655.663 1.553 1.57 3.251 1.57V8.5c-.676 0-.965-.264-1.554-.859-.655-.662-1.553-1.57-3.25-1.57-1.699 0-2.595.908-3.252 1.57-.589.595-.877.859-1.555.859-.674 0-.962-.264-1.55-.859-.654-.662-1.55-1.57-3.247-1.57-1.697 0-2.594.908-3.248 1.57-.588.595-.876.859-1.549.859-.673 0-.961-.264-1.549-.859-.654-.662-1.55-1.57-3.246-1.57V8.5c.673 0 .961.264 1.55.858.653.663 1.55 1.57 3.245 1.57zm0 6.071c1.696 0 2.592-.907 3.246-1.57.588-.595.877-.859 1.55-.859.674 0 .963.264 1.551.859.654.663 1.55 1.57 3.247 1.57 1.698 0 2.596-.907 3.252-1.57.59-.595.879-.859 1.554-.859.676 0 .965.264 1.554.859.655.663 1.553 1.57 3.251 1.57v-2.429c-.676 0-.965-.263-1.554-.858-.655-.663-1.553-1.57-3.25-1.57-1.699 0-2.595.907-3.252 1.569-.589.596-.877.86-1.555.86-.674 0-.962-.264-1.55-.86-.654-.662-1.55-1.57-3.247-1.57-1.697 0-2.594.908-3.248 1.57-.588.596-.876.86-1.549.86-.673 0-.961-.264-1.549-.86-.654-.662-1.55-1.57-3.246-1.57v2.43c.673 0 .961.263 1.55.858.653.663 1.55 1.57 3.245 1.57z" fill="#FE3333"/></svg><svg fill="none" viewBox="0 0 20 14" id="lang" xmlns="http://www.w3.org/2000/svg"><path fill="#0085FF" d="M0 0h20v7H0z"/><path fill="#FFDB5A" d="M0 7h20v7H0z"/></svg><svg fill="none" viewBox="0 0 219 50" id="logo" xmlns="http://www.w3.org/2000/svg"><path fill-rule="evenodd" clip-rule="evenodd" d="M0 0h49v50H0V0zm37.685 6.787a.84.84 0 01.175.693c-1.029 6.432-6.043 6.112-7.568 6.015A7.386 7.386 0 0030 13.48h-2c-7.816 0-10.86 4.773-10.995 11.52.136 6.747 3.18 11.52 10.995 11.52h2c.073-.001.172-.008.292-.015 1.525-.098 6.54-.417 7.568 6.015a.84.84 0 01-.82 1H27c-9.672 0-17.564-6.628-17.983-18.04H9c0-.16.001-.32.004-.48A26.52 26.52 0 019 24.52h.017C9.437 13.108 17.328 6.48 27 6.48h10.04a.84.84 0 01.645.307zM36.5 25l-.111.149c-1.136 1.523-2.5 3.351-5.889 3.351h-6a3.5 3.5 0 110-7h10c.256 0 .511-.005.761-.01 2.193-.045 3.932-.08 1.239 3.51z" fill="#fff"/><path d="M60.318 29.66V10.81h8.07v2.695h-5.113v5.258h4.062v2.682h-4.062v5.52h5.114v2.695h-8.071zm9.766-8.07v-2.695h5.376v2.694h-5.376zm7.388 8.07V10.81h2.642v11.936l1.077-4.154 2.419-7.781h3.26V29.66H84.2V16.384l-1.209 4.64-2.484 8.636h-3.036zm11.488 0V10.81h2.957v8.085h3.365V10.81h3.024V29.66h-3.024v-8.07h-3.365v8.07H88.96zm10.62 0l3.668-11.12-3.667-7.73h2.97l3.497 7.624v-7.623h2.931v7.623l3.496-7.623h2.971l-3.641 7.65 3.641 11.199h-3.049l-2.695-8.347-.723 1.433v6.914h-2.931v-6.914l-.723-1.46-2.695 8.374h-3.05zm17.115 0V10.81h2.642v11.936l1.078-4.154 2.418-7.781h3.26V29.66h-2.668V16.384l-1.21 4.64-2.484 8.636h-3.036zm11.488 0V10.81h2.958v8.085h3.365V10.81h3.023V29.66h-3.023v-8.07h-3.365v8.07h-2.958zm11.488 0V10.81h2.642v11.936l1.078-4.154 2.419-7.781h3.26V29.66h-2.669V16.384l-1.209 4.64-2.484 8.636h-3.037zm11.489 0V10.81h4.364c1.463 0 2.565.4 3.306 1.197.74.797 1.11 1.954 1.11 3.47v2.445c0 1.516-.37 2.67-1.11 3.463-.741.793-1.843 1.19-3.306 1.19h-1.407v7.085h-2.957zm2.957-9.767h1.407c.49 0 .854-.135 1.091-.407.236-.272.355-.732.355-1.38V15.28c0-.649-.119-1.106-.355-1.374-.237-.267-.601-.4-1.091-.4h-1.407v6.387zm7.19 9.767V10.81h2.642v11.936l1.078-4.154 2.419-7.781h3.26V29.66h-2.669V16.384l-1.209 4.64-2.484 8.636h-3.037zm11.489 0V10.81h2.957v8.085h3.365V10.81h3.023V29.66h-3.023v-8.07h-3.365v8.07h-2.957zm11.514 0V10.81h7.808v2.695h-4.85V29.66h-2.958zm13.96 0V10.81h2.957v8.216l3.878-8.215h2.957l-4.114 8.399 4.114 10.45h-3.036l-2.879-7.506-.92 1.722v5.784h-2.957zm10.883-4.522v-9.806c0-1.507.39-2.672 1.17-3.496.78-.824 1.893-1.236 3.339-1.236s2.557.412 3.332 1.236c.776.824 1.163 1.99 1.163 3.496v9.806c0 1.507-.387 2.673-1.163 3.497-.775.823-1.886 1.235-3.332 1.235s-2.559-.412-3.339-1.235c-.78-.824-1.17-1.99-1.17-3.497zm2.971.184c0 1.245.513 1.867 1.538 1.867 1.016 0 1.525-.622 1.525-1.867V15.148c0-1.235-.509-1.853-1.525-1.853-1.025 0-1.538.618-1.538 1.853v10.174z" fill="#000"/><path d="M60.318 29.66V10.81h8.07v2.695h-5.113v5.258h4.062v2.682h-4.062v5.52h5.114v2.695h-8.071zm9.766-8.07v-2.695h5.376v2.694h-5.376zm7.388 8.07V10.81h2.642v11.936l1.077-4.154 2.419-7.781h3.26V29.66H84.2V16.384l-1.209 4.64-2.484 8.636h-3.036zm11.488 0V10.81h2.957v8.085h3.365V10.81h3.024V29.66h-3.024v-8.07h-3.365v8.07H88.96zm10.62 0l3.668-11.12-3.667-7.73h2.97l3.497 7.624v-7.623h2.931v7.623l3.496-7.623h2.971l-3.641 7.65 3.641 11.199h-3.049l-2.695-8.347-.723 1.433v6.914h-2.931v-6.914l-.723-1.46-2.695 8.374h-3.05zm17.115 0V10.81h2.642v11.936l1.078-4.154 2.418-7.781h3.26V29.66h-2.668V16.384l-1.21 4.64-2.484 8.636h-3.036zm11.488 0V10.81h2.958v8.085h3.365V10.81h3.023V29.66h-3.023v-8.07h-3.365v8.07h-2.958zm11.488 0V10.81h2.642v11.936l1.078-4.154 2.419-7.781h3.26V29.66h-2.669V16.384l-1.209 4.64-2.484 8.636h-3.037zm11.489 0V10.81h4.364c1.463 0 2.565.4 3.306 1.197.74.797 1.11 1.954 1.11 3.47v2.445c0 1.516-.37 2.67-1.11 3.463-.741.793-1.843 1.19-3.306 1.19h-1.407v7.085h-2.957zm2.957-9.767h1.407c.49 0 .854-.135 1.091-.407.236-.272.355-.732.355-1.38V15.28c0-.649-.119-1.106-.355-1.374-.237-.267-.601-.4-1.091-.4h-1.407v6.387zm7.19 9.767V10.81h2.642v11.936l1.078-4.154 2.419-7.781h3.26V29.66h-2.669V16.384l-1.209 4.64-2.484 8.636h-3.037zm11.489 0V10.81h2.957v8.085h3.365V10.81h3.023V29.66h-3.023v-8.07h-3.365v8.07h-2.957zm11.514 0V10.81h7.808v2.695h-4.85V29.66h-2.958zm13.96 0V10.81h2.957v8.216l3.878-8.215h2.957l-4.114 8.399 4.114 10.45h-3.036l-2.879-7.506-.92 1.722v5.784h-2.957zm10.883-4.522v-9.806c0-1.507.39-2.672 1.17-3.496.78-.824 1.893-1.236 3.339-1.236s2.557.412 3.332 1.236c.776.824 1.163 1.99 1.163 3.496v9.806c0 1.507-.387 2.673-1.163 3.497-.775.823-1.886 1.235-3.332 1.235s-2.559-.412-3.339-1.235c-.78-.824-1.17-1.99-1.17-3.497zm2.971.184c0 1.245.513 1.867 1.538 1.867 1.016 0 1.525-.622 1.525-1.867V15.148c0-1.235-.509-1.853-1.525-1.853-1.025 0-1.538.618-1.538 1.853v10.174z" fill="#fff"/><path fill-rule="evenodd" clip-rule="evenodd" d="M60.458 42.01v-8.003h3.555v8.003h-.536v-7.523h-2.495v7.523h-.524zm4.465 0v-8.003h1.657c.592 0 1.025.171 1.3.513.276.343.414.82.414 1.435v.865c0 .636-.152 1.111-.455 1.426-.303.314-.77.471-1.398.471h-.994v3.293h-.524zm.524-3.773h.994c.465 0 .802-.11 1.013-.329.21-.22.315-.571.315-1.055v-.937c0-.462-.091-.815-.273-1.06-.183-.246-.488-.37-.916-.37h-1.133v3.751zm3.516 3.773l1.753-8.014h.764l1.78 8.014h-.524l-.396-1.77h-2.495l-.402 1.77h-.48zm.96-2.227h2.333l-1.177-5.179-1.156 5.18zm4.136 2.227v-8.003h1.68c.584 0 1.002.141 1.255.424.253.283.38.71.38 1.284v.452c0 .457-.08.815-.237 1.071-.158.257-.43.426-.818.508.8.16 1.2.731 1.2 1.714v.697c0 1.236-.582 1.853-1.747 1.853H74.06zm.524-.48h1.19c.427 0 .738-.115.931-.346.194-.23.29-.577.29-1.038v-.72c0-.506-.114-.867-.343-1.083-.229-.215-.587-.323-1.074-.323h-.994v3.51zm0-3.99h.893c.492 0 .843-.09 1.055-.268.212-.179.318-.512.318-1v-.513c0-.439-.083-.76-.25-.965-.168-.205-.459-.307-.871-.307h-1.145v3.053zm3.796 4.47v-8.003h.48v6.848l1.166-3.27 1.29-3.578h.63v8.003h-.48v-7.077l-1.2 3.316-1.317 3.761h-.57zm4.336.011v-.48c.145 0 .273-.016.382-.05.11-.033.2-.086.271-.159.07-.072.127-.147.17-.223a.976.976 0 00.098-.307 4.4 4.4 0 00.067-.734l.24-6.061h2.98v8.003h-.536v-7.523h-1.953l-.206 5.57c-.012.242-.028.449-.05.622a2.67 2.67 0 01-.126.527 1.245 1.245 0 01-.24.433c-.099.11-.231.2-.397.27-.165.071-.363.109-.594.112h-.106zm5.135-.01v-8.004h.524V37.3h.983c.636 0 1.105.157 1.409.471.303.315.454.79.454 1.426v.87c0 1.296-.574 1.943-1.724 1.943H87.85zm.524-.48h1.122c.428 0 .735-.124.92-.37.187-.245.28-.598.28-1.06v-.937c0-.484-.107-.836-.321-1.055-.214-.22-.553-.33-1.019-.33h-.982v3.751zm3.7.48v-8.004h.525v3.762h2.495v-3.762h.536v8.003h-.536V38.25h-2.495v3.761h-.525zm4.465 0v-8.004h.525V37.3h.982c.636 0 1.106.157 1.41.471.303.315.454.79.454 1.426v.87c0 1.296-.575 1.943-1.724 1.943h-1.647zm.525-.48h1.122c.428 0 .734-.124.92-.37.187-.245.28-.598.28-1.06v-.937c0-.484-.107-.836-.321-1.055-.214-.22-.554-.33-1.019-.33h-.982v3.751zm3.6.48v-8.004h.524v8.003h-.524zm1.44 0v-8.004h.48v6.848l1.038-2.913 1.417-3.935h.631v8.003h-.48v-7.077l-1.144 3.181-1.373 3.896h-.569zm.697-9.511h.363c.004.212.079.37.226.474a.936.936 0 00.555.157.947.947 0 00.561-.157c.147-.104.226-.262.237-.474h.352c-.004.301-.112.539-.324.712-.212.173-.487.26-.826.26-.335 0-.608-.087-.82-.26-.212-.173-.32-.41-.324-.712zm5.548 9.51v-8.003h1.68c.584 0 1.002.141 1.255.424.253.283.38.71.38 1.284v.452c0 .457-.079.815-.237 1.071-.158.257-.431.426-.818.508.8.16 1.2.731 1.2 1.714v.697c0 1.236-.582 1.853-1.747 1.853h-1.713zm.524-.48h1.189c.428 0 .739-.115.932-.346.194-.23.29-.577.29-1.038v-.72c0-.506-.114-.867-.343-1.083-.229-.215-.587-.323-1.074-.323h-.994v3.51zm0-3.99h.893c.492 0 .843-.09 1.055-.268.212-.179.318-.512.318-1v-.513c0-.439-.083-.76-.251-.965-.167-.205-.457-.307-.87-.307h-1.145v3.053zm3.796 4.47v-8.003h.524V37.3h.982c.637 0 1.106.157 1.41.471.303.315.454.79.454 1.426v.87c0 1.296-.574 1.943-1.724 1.943h-1.646zm.524-.48h1.122c.428 0 .735-.123.921-.368.186-.246.279-.6.279-1.06v-.938c0-.484-.107-.836-.321-1.055-.214-.22-.553-.33-1.019-.33h-.982v3.751zm3.6.48v-8.003h.525v8.003h-.525zm1.44 0v-8.003h3.237v.48h-2.713v2.93h1.145c.628 0 1.096.14 1.403.421.307.281.461.734.461 1.36v.903c0 1.273-.592 1.91-1.775 1.91h-1.758zm.524-.48h1.234c.435 0 .752-.116.951-.349.2-.232.299-.581.299-1.046v-.971c0-.473-.106-.8-.318-.983-.212-.182-.553-.273-1.021-.273h-1.145v3.622zm3.863-1.473v-4.091c0-.614.146-1.105.438-1.474.292-.368.728-.552 1.308-.552.592 0 1.036.184 1.332.552.295.369.443.86.443 1.474v4.09c0 .615-.148 1.105-.443 1.471-.296.367-.74.55-1.332.55-.58 0-1.016-.183-1.308-.55-.292-.366-.438-.856-.438-1.47zm.524.033c0 .465.099.833.296 1.102.197.27.506.405.926.405.428 0 .743-.136.944-.407.201-.272.301-.638.301-1.1v-4.163c0-.462-.1-.828-.301-1.1-.201-.271-.516-.407-.944-.407-.42 0-.729.135-.926.404-.197.27-.296.638-.296 1.103v4.163zm3.862 1.92v-8.003h1.658c.591 0 1.025.171 1.3.513.276.343.413.82.413 1.435v.865c0 .636-.151 1.111-.455 1.426-.303.314-.769.471-1.398.471h-.993v3.293h-.525zm.525-3.773h.993c.465 0 .803-.11 1.013-.329.21-.22.316-.571.316-1.055v-.937c0-.462-.092-.815-.274-1.06-.182-.246-.487-.37-.915-.37h-1.133v3.751zm5.38.011v-.48h2.104v.48h-2.104zm4.761 3.762v-8.003h.524v3.762h2.495v-3.762h.536v8.003h-.536V38.25h-2.495v3.761h-.524zm4.347 0l1.753-8.014h.764l1.781 8.014h-.525l-.396-1.77h-2.495l-.402 1.77h-.48zm.96-2.227h2.333l-1.177-5.179-1.156 5.18zm4.102.274v-4.091c0-.614.142-1.105.424-1.474.283-.368.717-.552 1.301-.552s1.017.184 1.3.552c.283.369.424.86.424 1.474v.658h-.502v-.697c0-.462-.097-.828-.29-1.1-.194-.271-.501-.407-.921-.407-.42 0-.727.136-.921.407-.193.272-.29.638-.29 1.1v4.163c0 .462.097.826.29 1.094.194.268.501.402.921.402.42 0 .727-.134.921-.402.193-.268.29-.632.29-1.094v-.949h.502v.916c0 .614-.141 1.104-.424 1.47-.283.367-.716.55-1.3.55-.584 0-1.018-.183-1.301-.55-.282-.366-.424-.856-.424-1.47zm4.164-5.57v-.48h3.795v.48h-1.635v7.523h-.525v-7.523h-1.635zm4.537 5.57v-4.091c0-.614.146-1.105.438-1.474.292-.368.729-.552 1.309-.552.592 0 1.035.184 1.331.552.296.369.444.86.444 1.474v4.09c0 .615-.148 1.105-.444 1.471-.296.367-.739.55-1.331.55-.58 0-1.017-.183-1.309-.55-.292-.366-.438-.856-.438-1.47zm.525.033c0 .465.098.833.296 1.102.197.27.506.405.926.405.428 0 .742-.136.943-.407.201-.272.302-.638.302-1.1v-4.163c0-.462-.101-.828-.302-1.1-.201-.271-.515-.407-.943-.407-.42 0-.729.135-.926.404-.198.27-.296.638-.296 1.103v4.163zm3.784 1.92c.126-.193.19-.513.19-.96v-1.244c0-.92.385-1.464 1.155-1.636-.77-.178-1.155-.73-1.155-1.657v-.698c0-1.205.573-1.808 1.718-1.808h1.669v8.003h-.53v-3.577h-.832c-.491 0-.863.101-1.116.304-.253.203-.379.555-.379 1.057v1.256c0 .443-.058.763-.173.96h-.547zm.72-5.397c0 .51.121.86.362 1.052.242.192.616.288 1.122.288h.843v-3.466h-1.127c-.421 0-.726.117-.916.352-.189.234-.284.574-.284 1.02v.754zm3.767 5.397v-8.003h.525v7.523h1.964v-7.523h.53v7.523h1.987l-.011-7.523h.525v7.523h.675v1.557h-.514V42.01h-5.681zm6.909 0l1.753-8.014h.764l1.781 8.014h-.525l-.396-1.77h-2.495l-.402 1.77h-.48zm.96-2.227h2.333l-1.178-5.179-1.155 5.18zm4.058 2.227c.126-.193.189-.513.189-.96v-1.244c0-.92.385-1.464 1.156-1.636-.771-.178-1.156-.73-1.156-1.657v-.698c0-1.205.573-1.808 1.719-1.808h1.669v8.003h-.53v-3.577h-.832c-.491 0-.863.101-1.116.304-.253.203-.379.555-.379 1.057v1.256c0 .443-.058.763-.173.96h-.547zm.72-5.397c0 .51.121.86.362 1.052.242.192.616.288 1.122.288h.843v-3.466h-1.127c-.421 0-.726.117-.916.352-.19.234-.284.574-.284 1.02v.754zm5.48 3.444v-.776h.502v.81c0 .457.097.82.291 1.09.193.27.496.405.909.405.425 0 .734-.134.93-.402.195-.268.293-.632.293-1.094v-1.976h-1.636v-.48h1.636v-1.707c0-.462-.098-.828-.293-1.1-.196-.271-.505-.407-.93-.407-.413 0-.716.136-.909.407-.194.272-.291.638-.291 1.1v.541h-.491v-.502c0-.614.14-1.105.419-1.474.279-.368.711-.552 1.295-.552.58 0 1.013.185 1.297.555.285.37.427.86.427 1.47v4.092c0 .61-.142 1.1-.427 1.468-.284.368-.717.552-1.297.552-.584 0-1.018-.183-1.301-.55-.282-.366-.424-.856-.424-1.47zm4.326 1.953v-8.003h.524v4.23l2.606-4.23h.547l-2.282 3.728 2.433 4.275h-.547l-2.21-3.761-.547.87v2.891h-.524zm4.582-1.953v-4.091c0-.614.146-1.105.438-1.474.292-.368.728-.552 1.308-.552.592 0 1.036.184 1.332.552.295.369.443.86.443 1.474v4.09c0 .615-.148 1.105-.443 1.471-.296.367-.74.55-1.332.55-.58 0-1.016-.183-1.308-.55-.292-.366-.438-.856-.438-1.47zm.524.033c0 .465.099.833.296 1.102.197.27.506.405.926.405.428 0 .743-.136.944-.407.201-.272.301-.638.301-1.1v-4.163c0-.462-.1-.828-.301-1.1-.201-.271-.516-.407-.944-.407-.42 0-.729.135-.926.404-.197.27-.296.638-.296 1.103v4.163zm3.862 1.92v-8.003h.525v3.762h2.495v-3.762h.535v8.003h-.535V38.25h-2.495v3.761h-.525zm4.432-1.953v-4.091c0-.614.146-1.105.438-1.474.292-.368.728-.552 1.308-.552.592 0 1.036.184 1.332.552.295.369.443.86.443 1.474v4.09c0 .615-.148 1.105-.443 1.471-.296.367-.74.55-1.332.55-.58 0-1.016-.183-1.308-.55-.292-.366-.438-.856-.438-1.47zm.524.033c0 .465.099.833.296 1.102.197.27.506.405.926.405.428 0 .743-.136.944-.407.201-.272.301-.638.301-1.1v-4.163c0-.462-.1-.828-.301-1.1-.201-.271-.516-.407-.944-.407-.42 0-.729.135-.926.404-.197.27-.296.638-.296 1.103v4.163zm3.862 1.92v-8.003h.754l1.68 7.077 1.668-7.077h.754v8.003h-.502V34.9l-1.669 7.099h-.525l-1.691-7.077v7.088h-.469zm5.771 0v-8.003h.48v6.848l1.167-3.27 1.289-3.578h.63v8.003h-.48v-7.077l-1.199 3.316-1.318 3.761h-.569zm4.387 0c.126-.193.19-.513.19-.96v-1.244c0-.92.385-1.464 1.155-1.636-.77-.178-1.155-.73-1.155-1.657v-.698c0-1.205.573-1.808 1.719-1.808h1.668v8.003h-.53v-3.577h-.831c-.492 0-.864.101-1.117.304-.253.203-.379.555-.379 1.057v1.256c0 .443-.058.763-.173.96h-.547zm.72-5.397c0 .51.121.86.363 1.052.241.192.615.288 1.121.288h.843v-3.466h-1.127c-.421 0-.726.117-.916.352-.189.234-.284.574-.284 1.02v.754z" fill="#fff"/></svg><svg fill="none" viewBox="0 0 30 24" id="mail" xmlns="http://www.w3.org/2000/svg"><rect x="1" y="1" width="28" height="22" rx="2" stroke="#fff" stroke-width="2"/><path d="M1.607 22.286l9.99-10.858m16.796 10.286L18.95 11.43M2.143 1.714l10.952 10.972a3 3 0 004.29-.043L27.856 1.714" stroke="#fff" stroke-width="2"/></svg><svg fill="none" viewBox="0 0 30 30" id="market" xmlns="http://www.w3.org/2000/svg"><path d="M7.364 23.91a2.545 2.545 0 100 5.09 2.545 2.545 0 000-5.09zm0 0h17.818m-17.818 0L4.818 1H1m24.182 22.91a2.545 2.545 0 100 5.09 2.545 2.545 0 000-5.09zM5.384 6.09L29 8.637l-1.131 10.182H6.798" stroke="#fff" stroke-width="2" stroke-miterlimit="10" stroke-linecap="round" stroke-linejoin="round"/></svg><svg fill="none" viewBox="0 0 19 18" id="market-icon" xmlns="http://www.w3.org/2000/svg"><path d="M11.233 16.701c.606 0 1.099-.48 1.099-1.071 0-.59-.493-1.072-1.099-1.072-.605 0-1.098.481-1.098 1.072 0 .59.493 1.071 1.098 1.071zm0-3.441c1.34 0 2.43 1.063 2.43 2.37 0 1.307-1.09 2.37-2.43 2.37s-2.43-1.063-2.43-2.37c0-1.307 1.09-2.37 2.43-2.37zM2.43 16.701c.606 0 1.099-.48 1.099-1.071 0-.59-.493-1.072-1.099-1.072s-1.098.481-1.098 1.072c0 .59.492 1.071 1.098 1.071zm0-3.441c1.34 0 2.43 1.063 2.43 2.37 0 1.307-1.09 2.37-2.43 2.37S0 16.937 0 15.63c0-1.307 1.09-2.37 2.43-2.37zM1.332 9.09c0 .818.579 1.702 1.514 1.702h9.719c.59 0 .967-.598.967-1.01v-5.63l-12.2 1.414V9.09zM.587 4.344l12.945-1.5V1.8c0-.285.19-.537.47-.62L17.83.028a.67.67 0 01.833.43.647.647 0 01-.441.811l-3.358 1.008v7.504c0 1.115-.924 2.309-2.3 2.309H2.847C1.088 12.09 0 10.533 0 9.089v-4.1c0-.329.252-.605.587-.644z" fill="var(--svg-fill)"/></svg><svg fill="none" viewBox="0 0 9 9" id="max" xmlns="http://www.w3.org/2000/svg"><path fill="#B9BEC7" d="M0 4h9v1H0z"/><path fill="#B9BEC7" d="M4 9V0h1v9z"/></svg><svg fill="none" viewBox="0 0 46 8" id="menu-arrow" xmlns="http://www.w3.org/2000/svg"><path d="M45.354 4.354a.5.5 0 000-.708L42.172.464a.5.5 0 10-.707.708L44.293 4l-2.828 2.828a.5.5 0 10.707.708l3.182-3.182zM0 4.5h45v-1H0v1z" fill="#fff"/></svg><svg fill="none" viewBox="0 0 9 1" id="min" xmlns="http://www.w3.org/2000/svg"><path fill="#B9BEC7" d="M9 1H0V0h9z"/></svg><svg fill="none" viewBox="0 0 10 16" id="next" xmlns="http://www.w3.org/2000/svg"><path d="M1.071 15.142l7.071-7.071L1.072 1" stroke="#B5BFCA" stroke-width="1.5"/></svg><svg fill="none" viewBox="0 0 10 16" id="prev" xmlns="http://www.w3.org/2000/svg"><path d="M9.071 15.142L2 8.071 9.071 1" stroke="#878E97" stroke-width="1.5"/></svg><svg fill="none" viewBox="0 0 18 20" id="remove" xmlns="http://www.w3.org/2000/svg"><path d="M12 8v8h-2V8h2zM8 16H6V8h2v8z" fill="#878E97"/><path fill-rule="evenodd" clip-rule="evenodd" d="M13 4h5v2h-2v14H2V6H0V4h5V1.75C5 .769 5.879 0 7 0h4c1.121 0 2 .769 2 1.75V4zm1 14H4V6h10v12zM11 4H7V2h4v2z" fill="#878E97"/></svg><svg fill="none" viewBox="0 0 22 22" id="search" xmlns="http://www.w3.org/2000/svg"><path d="M15.889 14.825a.75.75 0 10-1.061 1.06l1.06-1.06zm.14 2.263a.75.75 0 101.061-1.06l-1.06 1.06zm4.557 3.498l.53.53a.726.726 0 00.02-.02l-.55-.51zm-2.083 0l-.53.53.53-.53zm-1.487-1.487l.53-.53-.53.53zm2.082-2.082l-.53.53.53-.53zm1.488 1.487l.53-.53-.53.53zm-5.752-14.51a7.662 7.662 0 010 10.838l1.06 1.06a9.162 9.162 0 000-12.958l-1.06 1.06zm0 10.838a7.665 7.665 0 01-10.84 0l-1.06 1.06a9.165 9.165 0 0012.96 0l-1.06-1.06zm-10.84 0a7.662 7.662 0 010-10.838l-1.06-1.06a9.162 9.162 0 000 12.958l1.06-1.06zm0-10.838a7.665 7.665 0 0110.84 0l1.06-1.06a9.165 9.165 0 00-12.96 0l1.06 1.06zm10.834 11.892l1.202 1.202 1.06-1.06-1.201-1.203-1.061 1.06zm5.227 4.17c-.26.259-.762.259-1.021 0l-1.061 1.06c.845.845 2.298.845 3.143 0l-1.06-1.06zm-1.021 0l-1.488-1.488-1.06 1.06 1.487 1.488 1.06-1.06zm-1.488-1.488c-.26-.26-.26-.762 0-1.021l-1.06-1.06c-.846.844-.846 2.297 0 3.142l1.06-1.06zm0-1.021c.26-.26.762-.26 1.022 0l1.06-1.06c-.845-.846-2.297-.846-3.142 0l1.06 1.06zm1.022 0l1.487 1.487 1.06-1.06-1.486-1.488-1.061 1.06zm1.487 1.487c.25.25.277.723-.019 1.041l1.1 1.021c.809-.871.836-2.267-.02-3.123l-1.06 1.061zm-5.66-9.716a5.078 5.078 0 01-5.079 5.077v1.5a6.578 6.578 0 006.579-6.577h-1.5zm-5.079 5.077a5.078 5.078 0 01-5.078-5.077h-1.5a6.578 6.578 0 006.578 6.577v-1.5zM4.238 9.318a5.078 5.078 0 015.078-5.077v-1.5a6.578 6.578 0 00-6.578 6.577h1.5zm5.078-5.077a5.078 5.078 0 015.079 5.077h1.5a6.578 6.578 0 00-6.579-6.577v1.5z" fill="#fff"/></svg><svg fill="none" viewBox="0 0 20 30" id="sort" xmlns="http://www.w3.org/2000/svg"><rect x=".5" y=".5" width="19" height="29" rx="2.5" stroke="#BCC6D1"/><path d="M14.314 17.657l-4.243 4.242-4.243-4.242M5.828 12.243L10.071 8l4.243 4.243" stroke="#878E97" stroke-width="1.5"/></svg><svg fill="none" viewBox="0 0 29 20" id="utube" xmlns="http://www.w3.org/2000/svg"><path d="M28.402 3.13A3.606 3.606 0 0025.848.612C23.577 0 14.5 0 14.5 0S5.422 0 3.153.588A3.679 3.679 0 00.597 3.13C0 5.365 0 10 0 10s0 4.659.597 6.87a3.607 3.607 0 002.556 2.518C5.446 20 14.5 20 14.5 20s9.077 0 11.347-.588a3.606 3.606 0 002.556-2.518c.597-2.235.597-6.87.597-6.87s.024-4.66-.598-6.894zM11.61 14.282V5.718L19.158 10l-7.548 4.282z" fill="#fff"/></svg></svg>