<svg width="28" height="28" viewBox="0 0 28 28" fill="none" xmlns="http://www.w3.org/2000/svg">
<path d="M6.08081 0H4.10101V6.33166H6.08081V0ZM26.0202 26.0302H1.9798V12.6633H0V28H28V12.6633H26.0202V26.0302ZM20.3636 2.88442H7.63636V4.85427H20.3636V2.88442ZM25.3838 2.88442V4.85427H26.0202V9.14573H1.9798V4.85427H2.68687V2.88442H0V11.2563H28V2.88442H25.3838ZM23.8283 0H21.8485V6.26131H23.8283V0ZM3.39394 23.9196H7.63636V21.809H3.39394V23.9196ZM9.05051 19.6985H13.2929V17.5879H9.05051V19.6985ZM7.63636 13.3668H3.39394V15.4774H7.63636V13.3668ZM3.39394 19.6985H7.63636V17.5879H3.39394V19.6985ZM9.05051 23.9196H13.2929V21.809H9.05051V23.9196ZM20.3636 19.6985H24.6061V17.5879H20.3636V19.6985ZM24.6061 13.3668H20.3636V15.4774H24.6061V13.3668ZM20.3636 23.9196H24.6061V21.809H20.3636V23.9196ZM13.2929 13.3668H9.05051V15.4774H13.2929V13.3668ZM14.7071 19.6985H18.9495V17.5879H14.7071V19.6985ZM14.7071 23.9196H18.9495V21.809H14.7071V23.9196ZM18.9495 13.3668H14.7071V15.4774H18.9495V13.3668Z" fill="white"/>
</svg>
