<svg width="35" height="33" viewBox="0 0 35 33" fill="none" xmlns="http://www.w3.org/2000/svg">
<path d="M35 12.6154L32.2062 12.3077L25.0665 19.3846L23.6696 20.7692L25.2993 29.0769L17.4612 25.2308L9.62306 29.0769L11.2528 20.7692L4.81153 14.3077L13.6585 13.5385L17.4612 5.23077L21.1863 13.3077L22.9712 11.5385H22.7384L19.4013 4.30769L17.4612 0L15.5211 4.30769L12.184 11.5385L4.57871 12.2308L0 12.6154L3.25942 15.8462L8.92461 21.4615L7.52772 28.6923L6.67406 33L10.6319 31.0769L17.4612 27.6923L24.2905 31.0769L28.2483 33L27.3947 28.6923L25.9978 21.4615L31.663 15.8462L35 12.6154ZM10.9424 14.6154L9.46785 16.1538L16.6075 22.7692C16.8404 23 17.0732 23.0769 17.3836 23.0769C17.694 23.0769 17.9268 23 18.1596 22.7692L33.1375 8.07692L31.5854 6.53846L17.306 20.4615L10.9424 14.6154Z" fill="white"/>
</svg>
