<svg width="37" height="24" viewBox="0 0 37 24" fill="none" xmlns="http://www.w3.org/2000/svg">
<path d="M5.20967 15.0206C6.87876 15.0206 7.56157 12.7569 8.32025 9.66313C8.39612 9.21039 8.47198 8.8331 8.54785 8.60673C9.15479 6.79576 10.2169 3.47564 11.8102 2.41924C12.5688 1.9665 12.8723 1.9665 12.8723 1.9665C13.3275 2.41924 12.7964 5.51299 11.886 6.87122C11.5826 7.32396 11.2032 7.7767 10.8239 8.22945C10.2928 8.90856 9.76173 9.58768 9.30653 10.3422C9.23066 10.4177 9.15479 10.5686 9.07893 10.6441C8.69959 11.2477 8.24438 12.0778 8.32025 13.1342C8.32025 13.5115 8.54785 13.8133 8.85132 13.9642C9.45826 14.4169 10.3687 14.1906 12.4171 13.5869C12.7964 13.436 13.3275 13.2851 13.5551 13.2851C13.631 13.2851 13.631 13.3605 13.7827 13.6624C13.9345 13.9642 14.2379 14.4169 14.6931 14.7188C15.1483 15.0206 15.6035 15.0961 16.1346 15.0206C17.3485 14.7188 18.1072 13.2096 18.8659 11.7005C19.0176 11.3986 19.2452 10.9459 19.3969 10.7195C19.4728 11.0214 19.4728 11.5496 19.4728 12.2287V12.3041C19.4728 12.9078 19.4728 13.9642 20.2315 14.6433C20.4591 14.8697 20.9143 15.0961 21.5971 15.0206C22.3558 14.9451 22.8868 14.3415 23.2662 13.8887C23.4179 13.7378 23.6455 13.436 23.7973 13.3605C23.8731 13.436 23.8731 13.5869 23.949 13.6624C24.1766 14.1151 24.4042 14.5679 24.9353 15.0206C26.3768 16.2279 27.7424 15.5488 28.5769 15.0961C28.9563 14.9451 29.2597 14.8697 29.4873 14.8697C30.0943 14.8697 31.1564 15.5488 31.8392 16.3034L33.4324 15.0206C32.7496 14.1906 31.1564 12.8323 29.4873 12.8323C28.8045 12.8323 28.1976 13.1342 27.7424 13.3605C26.832 13.8133 26.6044 13.8133 26.225 13.5115C26.0733 13.3605 25.9215 13.0587 25.8457 12.8323C25.6181 12.2287 24.9353 10.795 23.1144 11.3986C22.5075 11.625 22.1282 12.0778 21.7488 12.5305C21.673 12.606 21.5971 12.6814 21.5971 12.7569C21.5971 12.606 21.5971 12.3796 21.5971 12.3041V12.2287C21.5971 10.4932 21.4454 8.8331 20.2315 8.38036C19.5487 8.15399 18.79 8.3049 18.0313 9.21039C17.7278 9.58768 17.4244 10.1159 17.1209 10.8704C16.8174 11.4741 16.2105 12.606 15.8311 12.9833C15.7553 12.9078 15.6794 12.8323 15.6794 12.6814C15.4518 12.2287 14.9966 11.4741 13.9345 11.3232C13.5551 11.2477 13.024 11.3986 11.9619 11.7759C11.6584 11.8514 11.2791 12.0023 10.8997 12.0778C10.9756 12.0023 10.9756 11.9268 11.0515 11.8514C11.1274 11.7005 11.2032 11.625 11.2791 11.4741C11.6584 10.795 12.1136 10.1913 12.6447 9.58768C13.024 9.13493 13.4034 8.60673 13.7827 8.07853C14.6173 6.87122 16.2105 2.34379 14.5414 0.60827C13.7827 0.00461224 12.7206 -0.448131 10.748 0.759184C8.47198 2.19287 7.33397 5.81482 6.57529 8.07853C6.49942 8.38036 6.42356 8.75765 6.27182 9.28585C6.12009 10.0404 5.58901 12.2287 5.13381 12.9833C4.9062 12.3796 4.6786 10.2668 7.0305 2.64561C7.18223 2.19287 7.2581 1.89104 7.2581 1.74013L5.43728 0.910099C5.36141 1.06101 5.20967 1.66467 5.13381 2.04196C2.85778 9.21039 2.55431 12.8323 3.69232 14.3415C4.07166 14.8697 4.52687 15.0206 5.20967 15.0206ZM35.2533 16.907L33.8118 18.3407C34.7981 19.3217 35.1774 20.1517 34.9498 20.6044C34.4187 21.6608 30.9288 22.189 28.5769 21.8872C26.832 21.6608 25.0111 20.8308 23.1903 20.1517C21.9764 19.6235 20.6867 19.0953 19.4728 18.718C19.3211 18.6425 18.9417 18.5671 18.5624 18.5671C17.5002 17.1334 15.6035 16.1525 14.3138 16.0015C11.7343 15.6997 9.00306 16.5297 7.40984 18.1898C6.65116 18.9444 4.9062 20.6799 3.54059 20.6799C3.23711 20.6799 2.85778 20.6044 2.3267 20.0762C2.02323 19.6989 2.02323 19.3217 2.17497 19.0953C2.25084 18.7935 2.47844 18.4916 3.00951 18.718L3.61645 16.7561C2.3267 16.3788 1.11282 16.8316 0.430012 17.888C-0.252797 18.9444 -0.101062 20.3781 0.733482 21.2835C1.49216 22.1136 2.40257 22.5663 3.38885 22.5663C5.58901 22.6418 7.71331 20.4535 8.77545 19.4726C9.91347 18.2653 12.0378 17.6616 14.0103 17.8125C14.3897 17.888 14.9207 18.0389 15.3759 18.3407C13.7069 18.4162 12.0378 18.7935 11.2032 19.6989C10.5963 20.3781 10.4445 21.2081 10.748 22.1136C11.1274 23.2454 12.1895 23.8491 13.631 24C13.7827 24 14.0103 24 14.2379 24C15.907 24 18.0313 23.3963 18.79 22.1136C19.0935 21.6608 19.2452 21.1326 19.2452 20.6799C20.2315 20.9817 21.2936 21.4345 22.3558 21.8872C24.2525 22.7172 26.225 23.4718 28.1976 23.7736C30.3219 24.0755 35.4809 23.9245 36.6948 21.4345C37.3776 20.1517 36.9224 18.5671 35.2533 16.907ZM17.045 21.1326C16.7416 21.5854 15.2242 22.2645 13.8586 22.1136C13.4792 22.1136 12.8723 21.9627 12.6447 21.5099C12.5688 21.2835 12.6447 21.2835 12.6447 21.2081C13.1758 20.6799 14.9966 20.4535 16.5898 20.4535C16.7416 20.4535 16.9692 20.4535 17.1209 20.4535C17.2726 20.7553 17.1209 20.9817 17.045 21.1326Z" fill="white"/>
</svg>
