<svg width="32" height="32" viewBox="0 0 32 32" fill="none" xmlns="http://www.w3.org/2000/svg">
<path d="M22.5098 8.70588L16 15.2157L13.1765 12.3922L11.6078 13.9608L16 18.3529L24.0784 10.2745L22.5098 8.70588ZM28.549 6.11765L26.9804 7.68628C28.7059 10.0392 29.8039 12.8627 29.8039 16C29.8039 23.6078 23.6078 29.8039 16 29.8039C8.39216 29.8039 2.19608 23.6078 2.19608 16C2.19608 8.39216 8.39216 2.19608 16 2.19608C19.451 2.19608 22.6667 3.52941 25.098 5.64706L26.6667 4.07843C23.8431 1.56863 20.0784 0 16 0C7.21569 0 0 7.21569 0 16C0 24.7843 7.21569 32 16 32C24.7843 32 32 24.7843 32 16C32 12.2353 30.6667 8.86275 28.549 6.11765ZM14.902 28.1569H17.1765V25.0196H14.902V28.1569ZM17.1765 3.84314H14.8235V6.98039H17.1765V3.84314ZM3.84314 17.1765H6.90196V14.8235H3.84314V17.1765ZM25.0196 17.098H28.0784V14.8235H25.0196V17.098Z" fill="white"/>
</svg>
