<svg width="21" height="20" viewBox="0 0 21 20" fill="none" xmlns="http://www.w3.org/2000/svg">
<path d="M2.26611 14.0604C3.11221 15.7711 4.48445 17.1654 6.18136 18.0387C7.86611 18.9037 9.78698 19.1958 11.6527 18.8708C13.5242 18.5417 15.2388 17.6154 16.54 16.2306C17.8532 14.8327 18.6894 13.0543 18.9282 11.1513C19.1707 9.24387 18.8053 7.3086 17.8841 5.62091C16.9716 3.94632 15.5455 2.60895 13.8159 1.80566C12.0974 1.00978 10.1663 0.796293 8.3155 1.19762C6.46538 1.59865 4.94829 2.51071 3.69521 3.9528C3.5432 4.11281 2.95916 4.75885 2.47513 5.73391" stroke="#878E97" stroke-width="2" stroke-linecap="round" stroke-linejoin="round"/>
<path d="M6.93138 5.81287L1.89106 6.71993L1 1.5896" stroke="#878E97" stroke-width="2" stroke-linecap="round" stroke-linejoin="round"/>
</svg>
