<svg width="38" height="48" viewBox="0 0 38 48" fill="none" xmlns="http://www.w3.org/2000/svg">
<g clip-path="url(#clip0)">
<path d="M31.8644 17.9719C23.801 8.96248 21.9659 1.95935 21.9659 1.95935C21.9659 1.95935 20.5756 2.58748 19 4.03123L17.0166 26.9812L19 46.5937C28.7225 46.5937 36.6098 38.6156 36.6098 28.7812C36.6098 24.7125 34.3668 20.7656 31.8644 17.9719Z" fill="#FF6200"/>
<path d="M16.0341 7.96875C15.0239 10.0125 14.7921 12.3094 14.8014 14.0719C14.8107 15.7875 13.6151 17.2594 11.956 17.5969C10.7975 17.8312 9.59263 17.4656 8.75848 16.6219L7.12726 14.9719C7.12726 14.9719 4.70824 18.3375 4.30043 18.975C2.43751 21.825 1.37165 25.2375 1.39946 28.9125C1.46433 38.7281 9.29604 46.5938 18.9999 46.5938V4.03125C17.9712 4.97813 16.8682 6.27187 16.0341 7.96875Z" fill="#FD7D21"/>
<path d="M32.8934 17.025C28.871 12.5344 26.4798 8.56875 25.1822 6.04688C23.7734 3.30937 23.3193 1.6125 23.31 1.59375L22.8929 0L21.4007 0.675C21.3173 0.7125 20.2885 1.18125 19.0003 2.20312L18.0085 3.96562L19.0003 6.0375C19.7788 5.15625 20.5759 4.5 21.2154 4.05C22.2627 6.74063 24.9134 12.3094 30.8359 18.9188C32.1519 20.3906 35.2198 24.3 35.2198 28.7812C35.2198 37.8281 27.9441 45.1875 19.0003 45.1875L18.0085 47.0062L19.0003 48C29.4734 48 38.0002 39.375 38.0002 28.7812C38.0002 24.9375 36.1373 20.6531 32.8934 17.025Z" fill="#FFB62D"/>
<path d="M7.56296 40.4343C4.51369 37.3687 2.81759 33.2812 2.78052 28.9031C2.75272 25.6312 3.67954 22.4625 5.45906 19.7437C5.67223 19.4156 6.54345 18.1875 7.30345 17.1281L7.77613 17.6062C8.94393 18.7875 10.6122 19.2937 12.2249 18.9656C14.5327 18.4969 16.201 16.4344 16.1917 14.0531C16.1825 12.5812 16.3678 10.4344 17.2854 8.58748C17.7859 7.58435 18.3883 6.73123 19.0093 6.0281V2.19373C17.6469 3.26248 15.9786 4.93123 14.7922 7.33123C13.6337 9.68435 13.402 12.2906 13.4113 14.0719C13.4205 15.1031 12.6883 16.0031 11.6873 16.2094C10.983 16.35 10.26 16.1344 9.75028 15.6187L6.96979 12.8062L6.01515 14.1375C5.9132 14.2781 3.57759 17.5406 3.15125 18.1875C1.05662 21.3844 -0.0277716 25.0969 3.32595e-05 28.9219C0.0371064 34.0406 2.02979 38.8406 5.60735 42.4312C9.18491 46.0219 13.9395 48 19 48V45.1875C14.681 45.1875 10.6215 43.5 7.56296 40.4343Z" fill="#FDCB02"/>
<path d="M19.0002 19.3313C18.9909 19.3313 18.9816 19.3313 18.9723 19.3313L16.6553 30.3375L18.9723 41.3438C18.9816 41.3438 18.9909 41.3438 19.0002 41.3438C25.0153 41.3438 29.8811 36.4125 29.8811 30.3375C29.8811 24.2625 25.0153 19.3313 19.0002 19.3313Z" fill="#ED3800"/>
<path d="M8.11914 30.3469C8.11914 36.4125 12.9757 41.3438 18.9723 41.3532V19.3313C12.9757 19.35 8.11914 24.2719 8.11914 30.3469Z" fill="#FF4B00"/>
</g>
<defs>
<clipPath id="clip0">
<rect width="38" height="48" fill="white"/>
</clipPath>
</defs>
</svg>
