<svg width="24" height="17" viewBox="0 0 24 17" fill="none" xmlns="http://www.w3.org/2000/svg">
<path d="M4.7952 4.85714C6.4908 4.85714 7.3872 3.95007 8.0412 3.28707C8.6292 2.69207 8.9184 2.42857 9.5916 2.42857C10.2648 2.42857 10.554 2.69207 11.142 3.28707C11.796 3.95007 12.6924 4.85714 14.3892 4.85714C16.0872 4.85714 16.9848 3.95007 17.6412 3.28707C18.2304 2.69207 18.5196 2.42857 19.1952 2.42857C19.8708 2.42857 20.16 2.69207 20.7492 3.28707C21.4044 3.95007 22.302 4.85714 24 4.85714V2.42857C23.3244 2.42857 23.0352 2.16507 22.446 1.57007C21.7908 0.907072 20.8932 0 19.1952 0C17.4972 0 16.6008 0.907071 15.9444 1.56886C15.3552 2.16507 15.0672 2.42857 14.3892 2.42857C13.7148 2.42857 13.4268 2.16507 12.8388 1.57007C12.1848 0.907072 11.2884 0 9.5916 0C7.8948 0 6.9984 0.907072 6.3444 1.57007C5.7564 2.16507 5.4684 2.42857 4.7952 2.42857C4.122 2.42857 3.834 2.16507 3.246 1.57007C2.592 0.907072 1.6956 0 0 0V2.42857C0.6732 2.42857 0.9612 2.69207 1.5492 3.28707C2.2032 3.95007 3.0996 4.85714 4.7952 4.85714ZM4.7952 10.9286C6.4908 10.9286 7.3872 10.0215 8.0412 9.3585C8.6292 8.7635 8.9184 8.5 9.5916 8.5C10.2648 8.5 10.554 8.7635 11.142 9.3585C11.796 10.0215 12.6924 10.9286 14.3892 10.9286C16.0872 10.9286 16.9848 10.0215 17.6412 9.3585C18.2304 8.7635 18.5196 8.5 19.1952 8.5C19.8708 8.5 20.16 8.7635 20.7492 9.3585C21.4044 10.0215 22.302 10.9286 24 10.9286V8.5C23.3244 8.5 23.0352 8.2365 22.446 7.6415C21.7908 6.9785 20.8932 6.07143 19.1952 6.07143C17.4972 6.07143 16.6008 6.9785 15.9444 7.64029C15.3552 8.2365 15.0672 8.5 14.3892 8.5C13.7148 8.5 13.4268 8.2365 12.8388 7.6415C12.1848 6.9785 11.2884 6.07143 9.5916 6.07143C7.8948 6.07143 6.9984 6.9785 6.3444 7.6415C5.7564 8.2365 5.4684 8.5 4.7952 8.5C4.122 8.5 3.834 8.2365 3.246 7.6415C2.592 6.9785 1.6956 6.07143 0 6.07143V8.5C0.6732 8.5 0.9612 8.7635 1.5492 9.3585C2.2032 10.0215 3.0996 10.9286 4.7952 10.9286ZM4.7952 17C6.4908 17 7.3872 16.0929 8.0412 15.4299C8.6292 14.8349 8.9184 14.5714 9.5916 14.5714C10.2648 14.5714 10.554 14.8349 11.142 15.4299C11.796 16.0929 12.6924 17 14.3892 17C16.0872 17 16.9848 16.0929 17.6412 15.4299C18.2304 14.8349 18.5196 14.5714 19.1952 14.5714C19.8708 14.5714 20.16 14.8349 20.7492 15.4299C21.4044 16.0929 22.302 17 24 17V14.5714C23.3244 14.5714 23.0352 14.3079 22.446 13.7129C21.7908 13.0499 20.8932 12.1429 19.1952 12.1429C17.4972 12.1429 16.6008 13.0499 15.9444 13.7117C15.3552 14.3079 15.0672 14.5714 14.3892 14.5714C13.7148 14.5714 13.4268 14.3079 12.8388 13.7129C12.1848 13.0499 11.2884 12.1429 9.5916 12.1429C7.8948 12.1429 6.9984 13.0499 6.3444 13.7129C5.7564 14.3079 5.4684 14.5714 4.7952 14.5714C4.122 14.5714 3.834 14.3079 3.246 13.7129C2.592 13.0499 1.6956 12.1429 0 12.1429V14.5714C0.6732 14.5714 0.9612 14.8349 1.5492 15.4299C2.2032 16.0929 3.0996 17 4.7952 17Z" fill="#FE3333"/>
</svg>
