<svg width="219" height="50" viewBox="0 0 219 50" fill="none" xmlns="http://www.w3.org/2000/svg">
<path d="M49 0H0V50H49V0Z" fill="white"/>
<path fill-rule="evenodd" clip-rule="evenodd" d="M37.86 7.47998C37.9076 7.23455 37.8434 6.98066 37.6849 6.78734C37.5264 6.59402 37.29 6.48136 37.04 6.47998H27C17.06 6.47998 9 13.48 9 25.48H17C17 18.48 20 13.48 28 13.48H30C31 13.5 36.75 14.42 37.86 7.47998Z" fill="#2D4597"/>
<path fill-rule="evenodd" clip-rule="evenodd" d="M37.86 42.52C37.9076 42.7654 37.8434 43.0193 37.6849 43.2127C37.5264 43.406 37.29 43.5186 37.04 43.52H27C17.06 43.52 9 36.52 9 24.52H17C17 31.52 20 36.52 28 36.52H30C31 36.5 36.75 35.58 37.86 42.52Z" fill="#2D4597"/>
<path fill-rule="evenodd" clip-rule="evenodd" d="M36.5 25C35.34 26.55 34 28.5 30.5 28.5H24.5C22.567 28.5 21 26.933 21 25C21 23.067 22.567 21.5 24.5 21.5H34.5C37 21.5 39.5 21 36.5 25Z" fill="#2D4597"/>
<path d="M60.3174 29.6599V10.8107H68.3881V13.5053H63.2749V18.7631H67.3366V21.4446H63.2749V26.9653H68.3881V29.6599H60.3174ZM70.0838 21.5892V18.8945H75.4599V21.5892H70.0838ZM77.471 29.6599V10.8107H80.113V22.7459L81.1909 18.5922L83.6095 10.8107H86.8693V29.6599H84.201V16.3839L82.9917 21.024L80.5074 29.6599H77.471ZM88.9593 29.6599V10.8107H91.9168V18.8945H95.2818V10.8107H98.3051V29.6599H95.2818V21.5892H91.9168V29.6599H88.9593ZM99.5801 29.6599L103.247 18.5396L99.5801 10.8107H102.551L106.047 18.4345V10.8107H108.978V18.4345L112.475 10.8107H115.446L111.805 18.4608L115.446 29.6599H112.396L109.701 21.3131L108.978 22.7459V29.6599H106.047V22.7459L105.324 21.2868L102.63 29.6599H99.5801ZM116.694 29.6599V10.8107H119.336V22.7459L120.414 18.5922L122.833 10.8107H126.093V29.6599H123.424V16.3839L122.215 21.024L119.731 29.6599H116.694ZM128.183 29.6599V10.8107H131.14V18.8945H134.505V10.8107H137.528V29.6599H134.505V21.5892H131.14V29.6599H128.183ZM139.671 29.6599V10.8107H142.313V22.7459L143.391 18.5922L145.809 10.8107H149.069V29.6599H146.401V16.3839L145.192 21.024L142.707 29.6599H139.671ZM151.159 29.6599V10.8107H155.523C156.987 10.8107 158.089 11.2094 158.829 12.0068C159.57 12.8042 159.94 13.961 159.94 15.477V17.9218C159.94 19.4379 159.57 20.5924 158.829 21.3854C158.089 22.1785 156.987 22.575 155.523 22.575H154.117V29.6599H151.159ZM154.117 19.8935H155.523C156.014 19.8935 156.378 19.7577 156.614 19.486C156.851 19.2144 156.969 18.7543 156.969 18.1059V15.2798C156.969 14.6313 156.851 14.1735 156.614 13.9062C156.378 13.6389 156.014 13.5053 155.523 13.5053H154.117V19.8935ZM161.307 29.6599V10.8107H163.949V22.7459L165.027 18.5922L167.445 10.8107H170.705V29.6599H168.037V16.3839L166.828 21.024L164.343 29.6599H161.307ZM172.795 29.6599V10.8107H175.753V18.8945H179.118V10.8107H182.141V29.6599H179.118V21.5892H175.753V29.6599H172.795ZM184.31 29.6599V10.8107H192.118V13.5053H187.267V29.6599H184.31ZM198.269 29.6599V10.8107H201.227V19.026L205.104 10.8107H208.062L203.948 19.21L208.062 29.6599H205.026L202.147 22.1544L201.227 23.8763V29.6599H198.269ZM209.153 25.1382V15.3324C209.153 13.8251 209.543 12.6597 210.323 11.8359C211.103 11.0122 212.216 10.6003 213.661 10.6003C215.107 10.6003 216.218 11.0122 216.994 11.8359C217.769 12.6597 218.157 13.8251 218.157 15.3324V25.1382C218.157 26.6454 217.769 27.8109 216.994 28.6346C216.218 29.4584 215.107 29.8702 213.661 29.8702C212.216 29.8702 211.103 29.4584 210.323 28.6346C209.543 27.8109 209.153 26.6454 209.153 25.1382ZM212.124 25.3222C212.124 26.5666 212.636 27.1887 213.661 27.1887C214.678 27.1887 215.186 26.5666 215.186 25.3222V15.1483C215.186 13.9128 214.678 13.295 213.661 13.295C212.636 13.295 212.124 13.9128 212.124 15.1483V25.3222Z" fill="black"/>
<path d="M60.3174 29.6599V10.8107H68.3881V13.5053H63.2749V18.7631H67.3366V21.4446H63.2749V26.9653H68.3881V29.6599H60.3174ZM70.0838 21.5892V18.8945H75.4599V21.5892H70.0838ZM77.471 29.6599V10.8107H80.113V22.7459L81.1909 18.5922L83.6095 10.8107H86.8693V29.6599H84.201V16.3839L82.9917 21.024L80.5074 29.6599H77.471ZM88.9593 29.6599V10.8107H91.9168V18.8945H95.2818V10.8107H98.3051V29.6599H95.2818V21.5892H91.9168V29.6599H88.9593ZM99.5801 29.6599L103.247 18.5396L99.5801 10.8107H102.551L106.047 18.4345V10.8107H108.978V18.4345L112.475 10.8107H115.446L111.805 18.4608L115.446 29.6599H112.396L109.701 21.3131L108.978 22.7459V29.6599H106.047V22.7459L105.324 21.2868L102.63 29.6599H99.5801ZM116.694 29.6599V10.8107H119.336V22.7459L120.414 18.5922L122.833 10.8107H126.093V29.6599H123.424V16.3839L122.215 21.024L119.731 29.6599H116.694ZM128.183 29.6599V10.8107H131.14V18.8945H134.505V10.8107H137.528V29.6599H134.505V21.5892H131.14V29.6599H128.183ZM139.671 29.6599V10.8107H142.313V22.7459L143.391 18.5922L145.809 10.8107H149.069V29.6599H146.401V16.3839L145.192 21.024L142.707 29.6599H139.671ZM151.159 29.6599V10.8107H155.523C156.987 10.8107 158.089 11.2094 158.829 12.0068C159.57 12.8042 159.94 13.961 159.94 15.477V17.9218C159.94 19.4379 159.57 20.5924 158.829 21.3854C158.089 22.1785 156.987 22.575 155.523 22.575H154.117V29.6599H151.159ZM154.117 19.8935H155.523C156.014 19.8935 156.378 19.7577 156.614 19.486C156.851 19.2144 156.969 18.7543 156.969 18.1059V15.2798C156.969 14.6313 156.851 14.1735 156.614 13.9062C156.378 13.6389 156.014 13.5053 155.523 13.5053H154.117V19.8935ZM161.307 29.6599V10.8107H163.949V22.7459L165.027 18.5922L167.445 10.8107H170.705V29.6599H168.037V16.3839L166.828 21.024L164.343 29.6599H161.307ZM172.795 29.6599V10.8107H175.753V18.8945H179.118V10.8107H182.141V29.6599H179.118V21.5892H175.753V29.6599H172.795ZM184.31 29.6599V10.8107H192.118V13.5053H187.267V29.6599H184.31ZM198.269 29.6599V10.8107H201.227V19.026L205.104 10.8107H208.062L203.948 19.21L208.062 29.6599H205.026L202.147 22.1544L201.227 23.8763V29.6599H198.269ZM209.153 25.1382V15.3324C209.153 13.8251 209.543 12.6597 210.323 11.8359C211.103 11.0122 212.216 10.6003 213.661 10.6003C215.107 10.6003 216.218 11.0122 216.994 11.8359C217.769 12.6597 218.157 13.8251 218.157 15.3324V25.1382C218.157 26.6454 217.769 27.8109 216.994 28.6346C216.218 29.4584 215.107 29.8702 213.661 29.8702C212.216 29.8702 211.103 29.4584 210.323 28.6346C209.543 27.8109 209.153 26.6454 209.153 25.1382ZM212.124 25.3222C212.124 26.5666 212.636 27.1887 213.661 27.1887C214.678 27.1887 215.186 26.5666 215.186 25.3222V15.1483C215.186 13.9128 214.678 13.295 213.661 13.295C212.636 13.295 212.124 13.9128 212.124 15.1483V25.3222Z" fill="white"/>
<path fill-rule="evenodd" clip-rule="evenodd" d="M60.458 42.0101V34.0069H64.0131V42.0101H63.4774V34.4869H60.9826V42.0101H60.458ZM64.9229 42.0101V34.0069H66.5804C67.172 34.0069 67.6055 34.178 67.8808 34.5203C68.1561 34.8627 68.2938 35.3408 68.2938 35.9547V36.8197C68.2938 37.456 68.1422 37.9313 67.839 38.2457C67.5357 38.5601 67.0697 38.7173 66.4409 38.7173H65.4475V42.0101H64.9229ZM65.4475 38.2373H66.4409C66.906 38.2373 67.2436 38.1276 67.4539 37.908C67.6641 37.6885 67.7692 37.3369 67.7692 36.8532V35.9156C67.7692 35.4542 67.678 35.1008 67.4957 34.8552C67.3134 34.6096 67.0083 34.4869 66.5804 34.4869H65.4475V38.2373ZM68.9635 42.0101L70.716 33.9957H71.4806L73.261 42.0101H72.7363L72.3401 40.2409H69.8453L69.4435 42.0101H68.9635ZM69.9235 39.7833H72.2564L71.0788 34.6041L69.9235 39.7833ZM74.059 42.0101V34.0069H75.7389C76.3231 34.0069 76.7417 34.1483 76.9947 34.431C77.2477 34.7138 77.3742 35.1417 77.3742 35.7147V36.1668C77.3742 36.6244 77.2951 36.9816 77.137 37.2383C76.9789 37.495 76.7063 37.6643 76.3194 37.7462C77.1193 37.9062 77.5193 38.4773 77.5193 39.4596V40.1572C77.5193 41.3925 76.937 42.0101 75.7724 42.0101H74.059ZM74.5837 41.5301H75.7724C76.2003 41.5301 76.511 41.4148 76.7045 41.1841C76.8979 40.9534 76.9947 40.6074 76.9947 40.146V39.4261C76.9947 38.9201 76.8803 38.5592 76.6514 38.3434C76.4226 38.1276 76.0645 38.0197 75.5771 38.0197H74.5837V41.5301ZM74.5837 37.5397H75.4766C75.9678 37.5397 76.3194 37.4504 76.5314 37.2718C76.7435 37.0932 76.8496 36.7602 76.8496 36.2728V35.7593C76.8496 35.3203 76.7658 34.9985 76.5984 34.7938C76.431 34.5892 76.1408 34.4869 75.7278 34.4869H74.5837V37.5397ZM78.3788 42.0101V34.0069H78.8587V40.8548L80.0252 37.5843L81.3144 34.0069H81.9451V42.0101H81.4651V34.9333L80.2652 38.2485L78.948 42.0101H78.3788ZM82.7153 42.0213V41.5413C82.8604 41.5413 82.9878 41.5246 83.0976 41.4911C83.2073 41.4576 83.2975 41.4046 83.3682 41.332C83.4389 41.2595 83.4957 41.1851 83.5385 41.1088C83.5813 41.0325 83.6138 40.9302 83.6361 40.8018C83.6585 40.6735 83.6743 40.559 83.6836 40.4586C83.6929 40.3581 83.6994 40.2279 83.7031 40.0679L83.9431 34.0069H86.9234V42.0101H86.3876V34.4869H84.4342L84.2277 40.0567C84.2166 40.2986 84.1998 40.506 84.1775 40.679C84.1552 40.852 84.1133 41.0279 84.0519 41.2064C83.9905 41.385 83.9105 41.5292 83.8119 41.639C83.7133 41.7487 83.5812 41.839 83.4157 41.9097C83.2501 41.9804 83.052 42.0176 82.8213 42.0213H82.7153ZM87.8498 42.0101V34.0069H88.3744V37.2997H89.3567C89.993 37.2997 90.4627 37.4569 90.7659 37.7713C91.0692 38.0857 91.2208 38.561 91.2208 39.1973V40.0679C91.2208 41.3627 90.6459 42.0101 89.4962 42.0101H87.8498ZM88.3744 41.5301H89.4962C89.9241 41.5301 90.2311 41.4074 90.4171 41.1618C90.6031 40.9162 90.6962 40.5628 90.6962 40.1014V39.1638C90.6962 38.6801 90.5892 38.3285 90.3753 38.109C90.1613 37.8894 89.8218 37.7797 89.3567 37.7797H88.3744V41.5301ZM92.0747 42.0101V34.0069H92.5993V37.7685H95.094V34.0069H95.6298V42.0101H95.094V38.2485H92.5993V42.0101H92.0747ZM96.5395 42.0101V34.0069H97.0641V37.2997H98.0464C98.6827 37.2997 99.1524 37.4569 99.4556 37.7713C99.7589 38.0857 99.9105 38.561 99.9105 39.1973V40.0679C99.9105 41.3627 99.3356 42.0101 98.1859 42.0101H96.5395ZM97.0641 41.5301H98.1859C98.6138 41.5301 98.9208 41.4074 99.1068 41.1618C99.2929 40.9162 99.3859 40.5628 99.3859 40.1014V39.1638C99.3859 38.6801 99.2789 38.3285 99.065 38.109C98.851 37.8894 98.5115 37.7797 98.0464 37.7797H97.0641V41.5301ZM100.664 42.0101V34.0069H101.189V42.0101H100.664ZM102.104 42.0101V34.0069H102.584V40.8548L103.622 37.9415L105.039 34.0069H105.67V42.0101H105.19V34.9333L104.046 38.1145L102.673 42.0101H102.104ZM102.801 32.5H103.164C103.168 32.7121 103.243 32.8702 103.39 32.9744C103.537 33.0786 103.722 33.1307 103.946 33.1307C104.173 33.1307 104.36 33.0786 104.506 32.9744C104.653 32.8702 104.733 32.7121 104.744 32.5H105.095C105.092 32.8014 104.984 33.0386 104.772 33.2116C104.559 33.3846 104.284 33.4711 103.946 33.4711C103.611 33.4711 103.337 33.3846 103.125 33.2116C102.913 33.0386 102.805 32.8014 102.801 32.5ZM108.349 42.0101V34.0069H110.029C110.613 34.0069 111.032 34.1483 111.285 34.431C111.538 34.7138 111.664 35.1417 111.664 35.7147V36.1668C111.664 36.6244 111.585 36.9816 111.427 37.2383C111.269 37.495 110.996 37.6643 110.609 37.7462C111.409 37.9062 111.809 38.4773 111.809 39.4596V40.1572C111.809 41.3925 111.227 42.0101 110.062 42.0101H108.349ZM108.874 41.5301H110.062C110.49 41.5301 110.801 41.4148 110.994 41.1841C111.188 40.9534 111.285 40.6074 111.285 40.146V39.4261C111.285 38.9201 111.17 38.5592 110.941 38.3434C110.713 38.1276 110.354 38.0197 109.867 38.0197H108.874V41.5301ZM108.874 37.5397H109.767C110.258 37.5397 110.609 37.4504 110.821 37.2718C111.034 37.0932 111.14 36.7602 111.14 36.2728V35.7593C111.14 35.3203 111.056 34.9985 110.888 34.7938C110.721 34.5892 110.431 34.4869 110.018 34.4869H108.874V37.5397ZM112.669 42.0101V34.0069H113.193V37.2997H114.176C114.812 37.2997 115.282 37.4569 115.585 37.7713C115.888 38.0857 116.04 38.561 116.04 39.1973V40.0679C116.04 41.3627 115.465 42.0101 114.315 42.0101H112.669ZM113.193 41.5301H114.315C114.743 41.5301 115.05 41.4074 115.236 41.1618C115.422 40.9162 115.515 40.5628 115.515 40.1014V39.1638C115.515 38.6801 115.408 38.3285 115.194 38.109C114.98 37.8894 114.641 37.7797 114.176 37.7797H113.193V41.5301ZM116.793 42.0101V34.0069H117.318V42.0101H116.793ZM118.233 42.0101V34.0069H121.47V34.4869H118.758V37.4169H119.902C120.531 37.4169 120.998 37.5574 121.305 37.8383C121.612 38.1192 121.766 38.5722 121.766 39.1973V40.1014C121.766 41.3739 121.174 42.0101 119.991 42.0101H118.233ZM118.758 41.5301H119.991C120.426 41.5301 120.744 41.4139 120.943 41.1813C121.142 40.9488 121.241 40.6 121.241 40.1349V39.1638C121.241 38.6912 121.135 38.3638 120.923 38.1815C120.711 37.9992 120.371 37.908 119.902 37.908H118.758V41.5301ZM122.62 40.0567V35.9658C122.62 35.3519 122.766 34.8608 123.058 34.4924C123.35 34.1241 123.786 33.9399 124.367 33.9399C124.958 33.9399 125.402 34.1241 125.698 34.4924C125.994 34.8608 126.141 35.3519 126.141 35.9658V40.0567C126.141 40.6707 125.994 41.1609 125.698 41.5274C125.402 41.8938 124.958 42.0771 124.367 42.0771C123.786 42.0771 123.35 41.8938 123.058 41.5274C122.766 41.1609 122.62 40.6707 122.62 40.0567ZM123.144 40.0902C123.144 40.5553 123.243 40.9227 123.44 41.1925C123.637 41.4622 123.946 41.5971 124.367 41.5971C124.795 41.5971 125.109 41.4613 125.31 41.1897C125.511 40.9181 125.611 40.5516 125.611 40.0902V35.9268C125.611 35.4654 125.511 35.0989 125.31 34.8273C125.109 34.5557 124.795 34.4199 124.367 34.4199C123.946 34.4199 123.637 34.5548 123.44 34.8245C123.243 35.0943 123.144 35.4617 123.144 35.9268V40.0902ZM127.007 42.0101V34.0069H128.664C129.256 34.0069 129.689 34.178 129.964 34.5203C130.24 34.8627 130.377 35.3408 130.377 35.9547V36.8197C130.377 37.456 130.226 37.9313 129.923 38.2457C129.619 38.5601 129.153 38.7173 128.525 38.7173H127.531V42.0101H127.007ZM127.531 38.2373H128.525C128.99 38.2373 129.327 38.1276 129.538 37.908C129.748 37.6885 129.853 37.3369 129.853 36.8532V35.9156C129.853 35.4542 129.762 35.1008 129.579 34.8552C129.397 34.6096 129.092 34.4869 128.664 34.4869H127.531V38.2373ZM132.911 38.2485V37.7685H135.015V38.2485H132.911ZM137.672 42.0101V34.0069H138.197V37.7685H140.691V34.0069H141.227V42.0101H140.691V38.2485H138.197V42.0101H137.672ZM142.02 42.0101L143.772 33.9957H144.537L146.317 42.0101H145.792L145.396 40.2409H142.901L142.5 42.0101H142.02ZM142.979 39.7833H145.312L144.135 34.6041L142.979 39.7833ZM147.082 40.0567V35.9658C147.082 35.3519 147.223 34.8608 147.506 34.4924C147.788 34.1241 148.222 33.9399 148.806 33.9399C149.39 33.9399 149.824 34.1241 150.106 34.4924C150.389 34.8608 150.531 35.3519 150.531 35.9658V36.6244H150.028V35.9268C150.028 35.4654 149.932 35.0989 149.738 34.8273C149.545 34.5557 149.238 34.4199 148.817 34.4199C148.397 34.4199 148.09 34.5557 147.896 34.8273C147.703 35.0989 147.606 35.4654 147.606 35.9268V40.0902C147.606 40.5516 147.703 40.9162 147.896 41.1841C148.09 41.452 148.397 41.586 148.817 41.586C149.238 41.586 149.545 41.452 149.738 41.1841C149.932 40.9162 150.028 40.5516 150.028 40.0902V39.1415H150.531V40.0567C150.531 40.6707 150.389 41.1609 150.106 41.5274C149.824 41.8938 149.39 42.0771 148.806 42.0771C148.222 42.0771 147.788 41.8938 147.506 41.5274C147.223 41.1609 147.082 40.6707 147.082 40.0567ZM151.245 34.4869V34.0069H155.04V34.4869H153.405V42.0101H152.88V34.4869H151.245ZM155.782 40.0567V35.9658C155.782 35.3519 155.928 34.8608 156.221 34.4924C156.513 34.1241 156.949 33.9399 157.529 33.9399C158.121 33.9399 158.565 34.1241 158.86 34.4924C159.156 34.8608 159.304 35.3519 159.304 35.9658V40.0567C159.304 40.6707 159.156 41.1609 158.86 41.5274C158.565 41.8938 158.121 42.0771 157.529 42.0771C156.949 42.0771 156.513 41.8938 156.221 41.5274C155.928 41.1609 155.782 40.6707 155.782 40.0567ZM156.307 40.0902C156.307 40.5553 156.406 40.9227 156.603 41.1925C156.8 41.4622 157.109 41.5971 157.529 41.5971C157.957 41.5971 158.272 41.4613 158.472 41.1897C158.673 40.9181 158.774 40.5516 158.774 40.0902V35.9268C158.774 35.4654 158.673 35.0989 158.472 34.8273C158.272 34.5557 157.957 34.4199 157.529 34.4199C157.109 34.4199 156.8 34.5548 156.603 34.8245C156.406 35.0943 156.307 35.4617 156.307 35.9268V40.0902ZM160.091 42.0101C160.218 41.8166 160.281 41.4967 160.281 41.0502V39.8056C160.281 38.8866 160.666 38.3415 161.436 38.1704C160.666 37.9918 160.281 37.4392 160.281 36.5128V35.8151C160.281 34.6096 160.854 34.0069 162 34.0069H163.668V42.0101H163.138V38.4327H162.307C161.816 38.4327 161.443 38.534 161.19 38.7368C160.937 38.9396 160.811 39.2921 160.811 39.7944V41.0502C160.811 41.4929 160.753 41.8129 160.638 42.0101H160.091ZM160.811 36.6132C160.811 37.123 160.932 37.4737 161.174 37.6653C161.416 37.8569 161.789 37.9527 162.296 37.9527H163.138V34.4869H162.011C161.59 34.4869 161.285 34.6041 161.096 34.8385C160.906 35.0729 160.811 35.4133 160.811 35.8598V36.6132ZM164.578 42.0101V34.0069H165.103V41.5301H167.067V34.0069H167.598V41.5301H169.584L169.573 34.0069H170.098V41.5301H170.773V43.0873H170.26V42.0101H164.578ZM171.488 42.0101L173.24 33.9957H174.005L175.785 42.0101H175.26L174.864 40.2409H172.369L171.967 42.0101H171.488ZM172.447 39.7833H174.78L173.603 34.6041L172.447 39.7833ZM176.505 42.0101C176.631 41.8166 176.695 41.4967 176.695 41.0502V39.8056C176.695 38.8866 177.08 38.3415 177.85 38.1704C177.08 37.9918 176.695 37.4392 176.695 36.5128V35.8151C176.695 34.6096 177.268 34.0069 178.414 34.0069H180.082V42.0101H179.552V38.4327H178.721C178.229 38.4327 177.857 38.534 177.604 38.7368C177.351 38.9396 177.225 39.2921 177.225 39.7944V41.0502C177.225 41.4929 177.167 41.8129 177.052 42.0101H176.505ZM177.225 36.6132C177.225 37.123 177.346 37.4737 177.588 37.6653C177.829 37.8569 178.203 37.9527 178.709 37.9527H179.552V34.4869H178.425C178.004 34.4869 177.699 34.6041 177.509 34.8385C177.32 35.0729 177.225 35.4133 177.225 35.8598V36.6132ZM182.705 40.0567V39.281H183.208V40.0902C183.208 40.5479 183.304 40.9116 183.498 41.1813C183.691 41.4511 183.995 41.586 184.408 41.586C184.832 41.586 185.142 41.452 185.337 41.1841C185.532 40.9162 185.63 40.5516 185.63 40.0902V38.1145H183.995V37.6346H185.63V35.9268C185.63 35.4654 185.532 35.0989 185.337 34.8273C185.142 34.5557 184.832 34.4199 184.408 34.4199C183.995 34.4199 183.691 34.5557 183.498 34.8273C183.304 35.0989 183.208 35.4654 183.208 35.9268V36.4681H182.717V35.9658C182.717 35.3519 182.856 34.8608 183.135 34.4924C183.414 34.1241 183.846 33.9399 184.43 33.9399C185.01 33.9399 185.443 34.125 185.728 34.4952C186.012 34.8654 186.155 35.3556 186.155 35.9658V40.0567C186.155 40.6669 186.012 41.1562 185.728 41.5246C185.443 41.8929 185.01 42.0771 184.43 42.0771C183.846 42.0771 183.412 41.8938 183.13 41.5274C182.847 41.1609 182.705 40.6707 182.705 40.0567ZM187.031 42.0101V34.0069H187.555V38.2373L190.162 34.0069H190.709L188.426 37.735L190.859 42.0101H190.312L188.102 38.2485L187.555 39.1191V42.0101H187.031ZM191.613 40.0567V35.9658C191.613 35.3519 191.759 34.8608 192.051 34.4924C192.343 34.1241 192.779 33.9399 193.36 33.9399C193.951 33.9399 194.395 34.1241 194.691 34.4924C194.987 34.8608 195.134 35.3519 195.134 35.9658V40.0567C195.134 40.6707 194.987 41.1609 194.691 41.5274C194.395 41.8938 193.951 42.0771 193.36 42.0771C192.779 42.0771 192.343 41.8938 192.051 41.5274C191.759 41.1609 191.613 40.6707 191.613 40.0567ZM192.137 40.0902C192.137 40.5553 192.236 40.9227 192.433 41.1925C192.63 41.4622 192.939 41.5971 193.36 41.5971C193.788 41.5971 194.102 41.4613 194.303 41.1897C194.504 40.9181 194.604 40.5516 194.604 40.0902V35.9268C194.604 35.4654 194.504 35.0989 194.303 34.8273C194.102 34.5557 193.788 34.4199 193.36 34.4199C192.939 34.4199 192.63 34.5548 192.433 34.8245C192.236 35.0943 192.137 35.4617 192.137 35.9268V40.0902ZM196 42.0101V34.0069H196.524V37.7685H199.019V34.0069H199.555V42.0101H199.019V38.2485H196.524V42.0101H196ZM200.431 40.0567V35.9658C200.431 35.3519 200.577 34.8608 200.869 34.4924C201.161 34.1241 201.597 33.9399 202.178 33.9399C202.769 33.9399 203.213 34.1241 203.509 34.4924C203.805 34.8608 203.953 35.3519 203.953 35.9658V40.0567C203.953 40.6707 203.805 41.1609 203.509 41.5274C203.213 41.8938 202.769 42.0771 202.178 42.0771C201.597 42.0771 201.161 41.8938 200.869 41.5274C200.577 41.1609 200.431 40.6707 200.431 40.0567ZM200.955 40.0902C200.955 40.5553 201.054 40.9227 201.251 41.1925C201.448 41.4622 201.757 41.5971 202.178 41.5971C202.606 41.5971 202.92 41.4613 203.121 41.1897C203.322 40.9181 203.422 40.5516 203.422 40.0902V35.9268C203.422 35.4654 203.322 35.0989 203.121 34.8273C202.92 34.5557 202.606 34.4199 202.178 34.4199C201.757 34.4199 201.448 34.5548 201.251 34.8245C201.054 35.0943 200.955 35.4617 200.955 35.9268V40.0902ZM204.818 42.0101V34.0069H205.571L207.251 41.0837L208.92 34.0069H209.673V42.0101H209.171V34.8999L207.502 41.999H206.977L205.286 34.9222V42.0101H204.818ZM210.588 42.0101V34.0069H211.068V40.8548L212.235 37.5843L213.524 34.0069H214.155V42.0101H213.675V34.9333L212.475 38.2485L211.158 42.0101H210.588ZM214.975 42.0101C215.102 41.8166 215.165 41.4967 215.165 41.0502V39.8056C215.165 38.8866 215.55 38.3415 216.32 38.1704C215.55 37.9918 215.165 37.4392 215.165 36.5128V35.8151C215.165 34.6096 215.738 34.0069 216.884 34.0069H218.553V42.0101H218.022V38.4327H217.191C216.7 38.4327 216.328 38.534 216.075 38.7368C215.822 38.9396 215.695 39.2921 215.695 39.7944V41.0502C215.695 41.4929 215.637 41.8129 215.522 42.0101H214.975ZM215.695 36.6132C215.695 37.123 215.816 37.4737 216.058 37.6653C216.3 37.8569 216.674 37.9527 217.18 37.9527H218.022V34.4869H216.895C216.475 34.4869 216.169 34.6041 215.98 34.8385C215.79 35.0729 215.695 35.4133 215.695 35.8598V36.6132Z" fill="white"/>
</svg>
