<svg width="219" height="50" viewBox="0 0 219 50" fill="none" xmlns="http://www.w3.org/2000/svg">
<path fill-rule="evenodd" clip-rule="evenodd" d="M0 0H49V50H0V0ZM37.6849 6.78734C37.8434 6.98066 37.9076 7.23455 37.86 7.47998C36.8312 13.9121 31.8168 13.5925 30.2922 13.4954C30.1718 13.4877 30.0732 13.4814 30 13.48H28C20.1841 13.48 17.1407 18.2525 17.0048 25C17.1407 31.7475 20.1841 36.52 28 36.52H30C30.0732 36.5186 30.1718 36.5123 30.2922 36.5046C31.8168 36.4075 36.8312 36.0879 37.86 42.52C37.9076 42.7654 37.8434 43.0193 37.6849 43.2127C37.5264 43.406 37.29 43.5186 37.04 43.52H27C17.3281 43.52 9.43612 36.8925 9.01747 25.48H9C9 25.3191 9.00145 25.1591 9.00433 25C9.00145 24.8409 9 24.6809 9 24.52H9.01747C9.43612 13.1075 17.3281 6.47998 27 6.47998H37.04C37.29 6.48136 37.5264 6.59402 37.6849 6.78734ZM36.5 25L36.389 25.1486C35.2528 26.6717 33.889 28.5 30.5 28.5H24.5C22.567 28.5 21 26.933 21 25C21 23.067 22.567 21.5 24.5 21.5H34.5C34.7557 21.5 35.0114 21.4948 35.2612 21.4896C37.4537 21.4448 39.1931 21.4092 36.5 25Z" fill="white"/>
<path d="M60.3179 29.6599V10.8107H68.3886V13.5053H63.2754V18.7631H67.337V21.4446H63.2754V26.9653H68.3886V29.6599H60.3179ZM70.0843 21.5892V18.8945H75.4604V21.5892H70.0843ZM77.4715 29.6599V10.8107H80.1135V22.7459L81.1914 18.5922L83.61 10.8107H86.8698V29.6599H84.2015V16.3839L82.9922 21.024L80.5079 29.6599H77.4715ZM88.9598 29.6599V10.8107H91.9173V18.8945H95.2823V10.8107H98.3056V29.6599H95.2823V21.5892H91.9173V29.6599H88.9598ZM99.5806 29.6599L103.248 18.5396L99.5806 10.8107H102.551L106.048 18.4345V10.8107H108.979V18.4345L112.475 10.8107H115.446L111.805 18.4608L115.446 29.6599H112.397L109.702 21.3131L108.979 22.7459V29.6599H106.048V22.7459L105.325 21.2868L102.63 29.6599H99.5806ZM116.695 29.6599V10.8107H119.337V22.7459L120.415 18.5922L122.833 10.8107H126.093V29.6599H123.425V16.3839L122.215 21.024L119.731 29.6599H116.695ZM128.183 29.6599V10.8107H131.141V18.8945H134.506V10.8107H137.529V29.6599H134.506V21.5892H131.141V29.6599H128.183ZM139.671 29.6599V10.8107H142.313V22.7459L143.391 18.5922L145.81 10.8107H149.07V29.6599H146.401V16.3839L145.192 21.024L142.708 29.6599H139.671ZM151.16 29.6599V10.8107H155.524C156.987 10.8107 158.089 11.2094 158.83 12.0068C159.57 12.8042 159.94 13.961 159.94 15.477V17.9218C159.94 19.4379 159.57 20.5924 158.83 21.3854C158.089 22.1785 156.987 22.575 155.524 22.575H154.117V29.6599H151.16ZM154.117 19.8935H155.524C156.014 19.8935 156.378 19.7577 156.615 19.486C156.851 19.2144 156.97 18.7543 156.97 18.1059V15.2798C156.97 14.6313 156.851 14.1735 156.615 13.9062C156.378 13.6389 156.014 13.5053 155.524 13.5053H154.117V19.8935ZM161.307 29.6599V10.8107H163.949V22.7459L165.027 18.5922L167.446 10.8107H170.706V29.6599H168.037V16.3839L166.828 21.024L164.344 29.6599H161.307ZM172.796 29.6599V10.8107H175.753V18.8945H179.118V10.8107H182.141V29.6599H179.118V21.5892H175.753V29.6599H172.796ZM184.31 29.6599V10.8107H192.118V13.5053H187.268V29.6599H184.31ZM198.27 29.6599V10.8107H201.227V19.026L205.105 10.8107H208.062L203.948 19.21L208.062 29.6599H205.026L202.147 22.1544L201.227 23.8763V29.6599H198.27ZM209.153 25.1382V15.3324C209.153 13.8251 209.543 12.6597 210.323 11.8359C211.103 11.0122 212.216 10.6003 213.662 10.6003C215.108 10.6003 216.219 11.0122 216.994 11.8359C217.77 12.6597 218.157 13.8251 218.157 15.3324V25.1382C218.157 26.6454 217.77 27.8109 216.994 28.6346C216.219 29.4584 215.108 29.8702 213.662 29.8702C212.216 29.8702 211.103 29.4584 210.323 28.6346C209.543 27.8109 209.153 26.6454 209.153 25.1382ZM212.124 25.3222C212.124 26.5666 212.637 27.1887 213.662 27.1887C214.678 27.1887 215.187 26.5666 215.187 25.3222V15.1483C215.187 13.9128 214.678 13.295 213.662 13.295C212.637 13.295 212.124 13.9128 212.124 15.1483V25.3222Z" fill="black"/>
<path d="M60.3179 29.6599V10.8107H68.3886V13.5053H63.2754V18.7631H67.337V21.4446H63.2754V26.9653H68.3886V29.6599H60.3179ZM70.0843 21.5892V18.8945H75.4604V21.5892H70.0843ZM77.4715 29.6599V10.8107H80.1135V22.7459L81.1914 18.5922L83.61 10.8107H86.8698V29.6599H84.2015V16.3839L82.9922 21.024L80.5079 29.6599H77.4715ZM88.9598 29.6599V10.8107H91.9173V18.8945H95.2823V10.8107H98.3056V29.6599H95.2823V21.5892H91.9173V29.6599H88.9598ZM99.5806 29.6599L103.248 18.5396L99.5806 10.8107H102.551L106.048 18.4345V10.8107H108.979V18.4345L112.475 10.8107H115.446L111.805 18.4608L115.446 29.6599H112.397L109.702 21.3131L108.979 22.7459V29.6599H106.048V22.7459L105.325 21.2868L102.63 29.6599H99.5806ZM116.695 29.6599V10.8107H119.337V22.7459L120.415 18.5922L122.833 10.8107H126.093V29.6599H123.425V16.3839L122.215 21.024L119.731 29.6599H116.695ZM128.183 29.6599V10.8107H131.141V18.8945H134.506V10.8107H137.529V29.6599H134.506V21.5892H131.141V29.6599H128.183ZM139.671 29.6599V10.8107H142.313V22.7459L143.391 18.5922L145.81 10.8107H149.07V29.6599H146.401V16.3839L145.192 21.024L142.708 29.6599H139.671ZM151.16 29.6599V10.8107H155.524C156.987 10.8107 158.089 11.2094 158.83 12.0068C159.57 12.8042 159.94 13.961 159.94 15.477V17.9218C159.94 19.4379 159.57 20.5924 158.83 21.3854C158.089 22.1785 156.987 22.575 155.524 22.575H154.117V29.6599H151.16ZM154.117 19.8935H155.524C156.014 19.8935 156.378 19.7577 156.615 19.486C156.851 19.2144 156.97 18.7543 156.97 18.1059V15.2798C156.97 14.6313 156.851 14.1735 156.615 13.9062C156.378 13.6389 156.014 13.5053 155.524 13.5053H154.117V19.8935ZM161.307 29.6599V10.8107H163.949V22.7459L165.027 18.5922L167.446 10.8107H170.706V29.6599H168.037V16.3839L166.828 21.024L164.344 29.6599H161.307ZM172.796 29.6599V10.8107H175.753V18.8945H179.118V10.8107H182.141V29.6599H179.118V21.5892H175.753V29.6599H172.796ZM184.31 29.6599V10.8107H192.118V13.5053H187.268V29.6599H184.31ZM198.27 29.6599V10.8107H201.227V19.026L205.105 10.8107H208.062L203.948 19.21L208.062 29.6599H205.026L202.147 22.1544L201.227 23.8763V29.6599H198.27ZM209.153 25.1382V15.3324C209.153 13.8251 209.543 12.6597 210.323 11.8359C211.103 11.0122 212.216 10.6003 213.662 10.6003C215.108 10.6003 216.219 11.0122 216.994 11.8359C217.77 12.6597 218.157 13.8251 218.157 15.3324V25.1382C218.157 26.6454 217.77 27.8109 216.994 28.6346C216.219 29.4584 215.108 29.8702 213.662 29.8702C212.216 29.8702 211.103 29.4584 210.323 28.6346C209.543 27.8109 209.153 26.6454 209.153 25.1382ZM212.124 25.3222C212.124 26.5666 212.637 27.1887 213.662 27.1887C214.678 27.1887 215.187 26.5666 215.187 25.3222V15.1483C215.187 13.9128 214.678 13.295 213.662 13.295C212.637 13.295 212.124 13.9128 212.124 15.1483V25.3222Z" fill="white"/>
<path fill-rule="evenodd" clip-rule="evenodd" d="M60.4578 42.0101V34.0069H64.0129V42.0101H63.4771V34.4869H60.9824V42.0101H60.4578ZM64.9226 42.0101V34.0069H66.5802C67.1718 34.0069 67.6052 34.178 67.8806 34.5203C68.1559 34.8627 68.2936 35.3408 68.2936 35.9547V36.8197C68.2936 37.456 68.1419 37.9313 67.8387 38.2457C67.5355 38.5601 67.0695 38.7173 66.4407 38.7173H65.4472V42.0101H64.9226ZM65.4472 38.2373H66.4407C66.9057 38.2373 67.2434 38.1276 67.4536 37.908C67.6638 37.6885 67.7689 37.3369 67.7689 36.8532V35.9156C67.7689 35.4542 67.6778 35.1008 67.4955 34.8552C67.3132 34.6096 67.0081 34.4869 66.5802 34.4869H65.4472V38.2373ZM68.9633 42.0101L70.7157 33.9957H71.4804L73.2607 42.0101H72.7361L72.3398 40.2409H69.8451L69.4433 42.0101H68.9633ZM69.9232 39.7833H72.2561L71.0785 34.6041L69.9232 39.7833ZM74.0588 42.0101V34.0069H75.7387C76.3228 34.0069 76.7414 34.1483 76.9944 34.431C77.2474 34.7138 77.3739 35.1417 77.3739 35.7147V36.1668C77.3739 36.6244 77.2949 36.9816 77.1367 37.2383C76.9786 37.495 76.7061 37.6643 76.3191 37.7462C77.1191 37.9062 77.519 38.4773 77.519 39.4596V40.1572C77.519 41.3925 76.9368 42.0101 75.7722 42.0101H74.0588ZM74.5834 41.5301H75.7722C76.2001 41.5301 76.5107 41.4148 76.7042 41.1841C76.8977 40.9534 76.9944 40.6074 76.9944 40.146V39.4261C76.9944 38.9201 76.88 38.5592 76.6512 38.3434C76.4224 38.1276 76.0643 38.0197 75.5768 38.0197H74.5834V41.5301ZM74.5834 37.5397H75.4764C75.9675 37.5397 76.3191 37.4504 76.5312 37.2718C76.7433 37.0932 76.8493 36.7602 76.8493 36.2728V35.7593C76.8493 35.3203 76.7656 34.9985 76.5982 34.7938C76.4307 34.5892 76.1405 34.4869 75.7275 34.4869H74.5834V37.5397ZM78.3785 42.0101V34.0069H78.8585V40.8548L80.0249 37.5843L81.3142 34.0069H81.9448V42.0101H81.4649V34.9333L80.2649 38.2485L78.9478 42.0101H78.3785ZM82.715 42.0213V41.5413C82.8601 41.5413 82.9876 41.5246 83.0973 41.4911C83.2071 41.4576 83.2973 41.4046 83.368 41.332C83.4387 41.2595 83.4954 41.1851 83.5382 41.1088C83.581 41.0325 83.6136 40.9302 83.6359 40.8018C83.6582 40.6735 83.674 40.559 83.6833 40.4586C83.6926 40.3581 83.6991 40.2279 83.7029 40.0679L83.9428 34.0069H86.9231V42.0101H86.3873V34.4869H84.434L84.2275 40.0567C84.2163 40.2986 84.1996 40.506 84.1772 40.679C84.1549 40.852 84.1131 41.0279 84.0517 41.2064C83.9903 41.385 83.9103 41.5292 83.8117 41.639C83.7131 41.7487 83.581 41.839 83.4154 41.9097C83.2499 41.9804 83.0517 42.0176 82.821 42.0213H82.715ZM87.8496 42.0101V34.0069H88.3742V37.2997H89.3565C89.9927 37.2997 90.4624 37.4569 90.7657 37.7713C91.0689 38.0857 91.2205 38.561 91.2205 39.1973V40.0679C91.2205 41.3627 90.6457 42.0101 89.496 42.0101H87.8496ZM88.3742 41.5301H89.496C89.9239 41.5301 90.2308 41.4074 90.4169 41.1618C90.6029 40.9162 90.6959 40.5628 90.6959 40.1014V39.1638C90.6959 38.6801 90.589 38.3285 90.375 38.109C90.1611 37.8894 89.8216 37.7797 89.3565 37.7797H88.3742V41.5301ZM92.0744 42.0101V34.0069H92.5991V37.7685H95.0938V34.0069H95.6296V42.0101H95.0938V38.2485H92.5991V42.0101H92.0744ZM96.5393 42.0101V34.0069H97.0639V37.2997H98.0462C98.6824 37.2997 99.1521 37.4569 99.4554 37.7713C99.7586 38.0857 99.9102 38.561 99.9102 39.1973V40.0679C99.9102 41.3627 99.3354 42.0101 98.1857 42.0101H96.5393ZM97.0639 41.5301H98.1857C98.6136 41.5301 98.9205 41.4074 99.1066 41.1618C99.2926 40.9162 99.3856 40.5628 99.3856 40.1014V39.1638C99.3856 38.6801 99.2786 38.3285 99.0647 38.109C98.8508 37.8894 98.5113 37.7797 98.0462 37.7797H97.0639V41.5301ZM100.664 42.0101V34.0069H101.188V42.0101H100.664ZM102.104 42.0101V34.0069H102.584V40.8548L103.622 37.9415L105.039 34.0069H105.67V42.0101H105.19V34.9333L104.046 38.1145L102.673 42.0101H102.104ZM102.801 32.5H103.164C103.168 32.7121 103.243 32.8702 103.39 32.9744C103.537 33.0786 103.722 33.1307 103.945 33.1307C104.172 33.1307 104.359 33.0786 104.506 32.9744C104.653 32.8702 104.732 32.7121 104.743 32.5H105.095C105.091 32.8014 104.983 33.0386 104.771 33.2116C104.559 33.3846 104.284 33.4711 103.945 33.4711C103.61 33.4711 103.337 33.3846 103.125 33.2116C102.913 33.0386 102.805 32.8014 102.801 32.5ZM108.349 42.0101V34.0069H110.029C110.613 34.0069 111.031 34.1483 111.284 34.431C111.537 34.7138 111.664 35.1417 111.664 35.7147V36.1668C111.664 36.6244 111.585 36.9816 111.427 37.2383C111.269 37.495 110.996 37.6643 110.609 37.7462C111.409 37.9062 111.809 38.4773 111.809 39.4596V40.1572C111.809 41.3925 111.227 42.0101 110.062 42.0101H108.349ZM108.873 41.5301H110.062C110.49 41.5301 110.801 41.4148 110.994 41.1841C111.188 40.9534 111.284 40.6074 111.284 40.146V39.4261C111.284 38.9201 111.17 38.5592 110.941 38.3434C110.712 38.1276 110.354 38.0197 109.867 38.0197H108.873V41.5301ZM108.873 37.5397H109.766C110.258 37.5397 110.609 37.4504 110.821 37.2718C111.033 37.0932 111.139 36.7602 111.139 36.2728V35.7593C111.139 35.3203 111.056 34.9985 110.888 34.7938C110.721 34.5892 110.431 34.4869 110.018 34.4869H108.873V37.5397ZM112.669 42.0101V34.0069H113.193V37.2997H114.175C114.812 37.2997 115.281 37.4569 115.585 37.7713C115.888 38.0857 116.039 38.561 116.039 39.1973V40.0679C116.039 41.3627 115.465 42.0101 114.315 42.0101H112.669ZM113.193 41.5301H114.315C114.743 41.5301 115.05 41.4074 115.236 41.1618C115.422 40.9162 115.515 40.5628 115.515 40.1014V39.1638C115.515 38.6801 115.408 38.3285 115.194 38.109C114.98 37.8894 114.641 37.7797 114.175 37.7797H113.193V41.5301ZM116.793 42.0101V34.0069H117.318V42.0101H116.793ZM118.233 42.0101V34.0069H121.47V34.4869H118.757V37.4169H119.902C120.53 37.4169 120.998 37.5574 121.305 37.8383C121.612 38.1192 121.766 38.5722 121.766 39.1973V40.1014C121.766 41.3739 121.174 42.0101 119.991 42.0101H118.233ZM118.757 41.5301H119.991C120.426 41.5301 120.743 41.4139 120.942 41.1813C121.142 40.9488 121.241 40.6 121.241 40.1349V39.1638C121.241 38.6912 121.135 38.3638 120.923 38.1815C120.711 37.9992 120.37 37.908 119.902 37.908H118.757V41.5301ZM122.62 40.0567V35.9658C122.62 35.3519 122.766 34.8608 123.058 34.4924C123.35 34.1241 123.786 33.9399 124.366 33.9399C124.958 33.9399 125.402 34.1241 125.698 34.4924C125.993 34.8608 126.141 35.3519 126.141 35.9658V40.0567C126.141 40.6707 125.993 41.1609 125.698 41.5274C125.402 41.8938 124.958 42.0771 124.366 42.0771C123.786 42.0771 123.35 41.8938 123.058 41.5274C122.766 41.1609 122.62 40.6707 122.62 40.0567ZM123.144 40.0902C123.144 40.5553 123.243 40.9227 123.44 41.1925C123.637 41.4622 123.946 41.5971 124.366 41.5971C124.794 41.5971 125.109 41.4613 125.31 41.1897C125.511 40.9181 125.611 40.5516 125.611 40.0902V35.9268C125.611 35.4654 125.511 35.0989 125.31 34.8273C125.109 34.5557 124.794 34.4199 124.366 34.4199C123.946 34.4199 123.637 34.5548 123.44 34.8245C123.243 35.0943 123.144 35.4617 123.144 35.9268V40.0902ZM127.006 42.0101V34.0069H128.664C129.255 34.0069 129.689 34.178 129.964 34.5203C130.24 34.8627 130.377 35.3408 130.377 35.9547V36.8197C130.377 37.456 130.226 37.9313 129.922 38.2457C129.619 38.5601 129.153 38.7173 128.524 38.7173H127.531V42.0101H127.006ZM127.531 38.2373H128.524C128.989 38.2373 129.327 38.1276 129.537 37.908C129.747 37.6885 129.853 37.3369 129.853 36.8532V35.9156C129.853 35.4542 129.761 35.1008 129.579 34.8552C129.397 34.6096 129.092 34.4869 128.664 34.4869H127.531V38.2373ZM132.911 38.2485V37.7685H135.015V38.2485H132.911ZM137.672 42.0101V34.0069H138.196V37.7685H140.691V34.0069H141.227V42.0101H140.691V38.2485H138.196V42.0101H137.672ZM142.019 42.0101L143.772 33.9957H144.536L146.317 42.0101H145.792L145.396 40.2409H142.901L142.499 42.0101H142.019ZM142.979 39.7833H145.312L144.135 34.6041L142.979 39.7833ZM147.081 40.0567V35.9658C147.081 35.3519 147.223 34.8608 147.505 34.4924C147.788 34.1241 148.222 33.9399 148.806 33.9399C149.39 33.9399 149.823 34.1241 150.106 34.4924C150.389 34.8608 150.53 35.3519 150.53 35.9658V36.6244H150.028V35.9268C150.028 35.4654 149.931 35.0989 149.738 34.8273C149.544 34.5557 149.237 34.4199 148.817 34.4199C148.397 34.4199 148.09 34.5557 147.896 34.8273C147.703 35.0989 147.606 35.4654 147.606 35.9268V40.0902C147.606 40.5516 147.703 40.9162 147.896 41.1841C148.09 41.452 148.397 41.586 148.817 41.586C149.237 41.586 149.544 41.452 149.738 41.1841C149.931 40.9162 150.028 40.5516 150.028 40.0902V39.1415H150.53V40.0567C150.53 40.6707 150.389 41.1609 150.106 41.5274C149.823 41.8938 149.39 42.0771 148.806 42.0771C148.222 42.0771 147.788 41.8938 147.505 41.5274C147.223 41.1609 147.081 40.6707 147.081 40.0567ZM151.245 34.4869V34.0069H155.04V34.4869H153.405V42.0101H152.88V34.4869H151.245ZM155.782 40.0567V35.9658C155.782 35.3519 155.928 34.8608 156.22 34.4924C156.512 34.1241 156.949 33.9399 157.529 33.9399C158.121 33.9399 158.564 34.1241 158.86 34.4924C159.156 34.8608 159.304 35.3519 159.304 35.9658V40.0567C159.304 40.6707 159.156 41.1609 158.86 41.5274C158.564 41.8938 158.121 42.0771 157.529 42.0771C156.949 42.0771 156.512 41.8938 156.22 41.5274C155.928 41.1609 155.782 40.6707 155.782 40.0567ZM156.307 40.0902C156.307 40.5553 156.405 40.9227 156.603 41.1925C156.8 41.4622 157.109 41.5971 157.529 41.5971C157.957 41.5971 158.271 41.4613 158.472 41.1897C158.673 40.9181 158.774 40.5516 158.774 40.0902V35.9268C158.774 35.4654 158.673 35.0989 158.472 34.8273C158.271 34.5557 157.957 34.4199 157.529 34.4199C157.109 34.4199 156.8 34.5548 156.603 34.8245C156.405 35.0943 156.307 35.4617 156.307 35.9268V40.0902ZM160.091 42.0101C160.217 41.8166 160.281 41.4967 160.281 41.0502V39.8056C160.281 38.8866 160.666 38.3415 161.436 38.1704C160.666 37.9918 160.281 37.4392 160.281 36.5128V35.8151C160.281 34.6096 160.854 34.0069 161.999 34.0069H163.668V42.0101H163.138V38.4327H162.306C161.815 38.4327 161.443 38.534 161.19 38.7368C160.937 38.9396 160.811 39.2921 160.811 39.7944V41.0502C160.811 41.4929 160.753 41.8129 160.638 42.0101H160.091ZM160.811 36.6132C160.811 37.123 160.932 37.4737 161.173 37.6653C161.415 37.8569 161.789 37.9527 162.295 37.9527H163.138V34.4869H162.011C161.59 34.4869 161.285 34.6041 161.095 34.8385C160.906 35.0729 160.811 35.4133 160.811 35.8598V36.6132ZM164.578 42.0101V34.0069H165.103V41.5301H167.067V34.0069H167.597V41.5301H169.584L169.573 34.0069H170.098V41.5301H170.773V43.0873H170.259V42.0101H164.578ZM171.487 42.0101L173.24 33.9957H174.004L175.785 42.0101H175.26L174.864 40.2409H172.369L171.967 42.0101H171.487ZM172.447 39.7833H174.78L173.602 34.6041L172.447 39.7833ZM176.505 42.0101C176.631 41.8166 176.694 41.4967 176.694 41.0502V39.8056C176.694 38.8866 177.079 38.3415 177.85 38.1704C177.079 37.9918 176.694 37.4392 176.694 36.5128V35.8151C176.694 34.6096 177.267 34.0069 178.413 34.0069H180.082V42.0101H179.552V38.4327H178.72C178.229 38.4327 177.857 38.534 177.604 38.7368C177.351 38.9396 177.225 39.2921 177.225 39.7944V41.0502C177.225 41.4929 177.167 41.8129 177.052 42.0101H176.505ZM177.225 36.6132C177.225 37.123 177.346 37.4737 177.587 37.6653C177.829 37.8569 178.203 37.9527 178.709 37.9527H179.552V34.4869H178.425C178.004 34.4869 177.699 34.6041 177.509 34.8385C177.319 35.0729 177.225 35.4133 177.225 35.8598V36.6132ZM182.705 40.0567V39.281H183.207V40.0902C183.207 40.5479 183.304 40.9116 183.498 41.1813C183.691 41.4511 183.994 41.586 184.407 41.586C184.832 41.586 185.141 41.452 185.337 41.1841C185.532 40.9162 185.63 40.5516 185.63 40.0902V38.1145H183.994V37.6346H185.63V35.9268C185.63 35.4654 185.532 35.0989 185.337 34.8273C185.141 34.5557 184.832 34.4199 184.407 34.4199C183.994 34.4199 183.691 34.5557 183.498 34.8273C183.304 35.0989 183.207 35.4654 183.207 35.9268V36.4681H182.716V35.9658C182.716 35.3519 182.856 34.8608 183.135 34.4924C183.414 34.1241 183.846 33.9399 184.43 33.9399C185.01 33.9399 185.443 34.125 185.727 34.4952C186.012 34.8654 186.154 35.3556 186.154 35.9658V40.0567C186.154 40.6669 186.012 41.1562 185.727 41.5246C185.443 41.8929 185.01 42.0771 184.43 42.0771C183.846 42.0771 183.412 41.8938 183.129 41.5274C182.847 41.1609 182.705 40.6707 182.705 40.0567ZM187.031 42.0101V34.0069H187.555V38.2373L190.161 34.0069H190.708L188.426 37.735L190.859 42.0101H190.312L188.102 38.2485L187.555 39.1191V42.0101H187.031ZM191.613 40.0567V35.9658C191.613 35.3519 191.759 34.8608 192.051 34.4924C192.343 34.1241 192.779 33.9399 193.359 33.9399C193.951 33.9399 194.395 34.1241 194.691 34.4924C194.986 34.8608 195.134 35.3519 195.134 35.9658V40.0567C195.134 40.6707 194.986 41.1609 194.691 41.5274C194.395 41.8938 193.951 42.0771 193.359 42.0771C192.779 42.0771 192.343 41.8938 192.051 41.5274C191.759 41.1609 191.613 40.6707 191.613 40.0567ZM192.137 40.0902C192.137 40.5553 192.236 40.9227 192.433 41.1925C192.63 41.4622 192.939 41.5971 193.359 41.5971C193.787 41.5971 194.102 41.4613 194.303 41.1897C194.504 40.9181 194.604 40.5516 194.604 40.0902V35.9268C194.604 35.4654 194.504 35.0989 194.303 34.8273C194.102 34.5557 193.787 34.4199 193.359 34.4199C192.939 34.4199 192.63 34.5548 192.433 34.8245C192.236 35.0943 192.137 35.4617 192.137 35.9268V40.0902ZM195.999 42.0101V34.0069H196.524V37.7685H199.019V34.0069H199.554V42.0101H199.019V38.2485H196.524V42.0101H195.999ZM200.431 40.0567V35.9658C200.431 35.3519 200.577 34.8608 200.869 34.4924C201.161 34.1241 201.597 33.9399 202.177 33.9399C202.769 33.9399 203.213 34.1241 203.509 34.4924C203.804 34.8608 203.952 35.3519 203.952 35.9658V40.0567C203.952 40.6707 203.804 41.1609 203.509 41.5274C203.213 41.8938 202.769 42.0771 202.177 42.0771C201.597 42.0771 201.161 41.8938 200.869 41.5274C200.577 41.1609 200.431 40.6707 200.431 40.0567ZM200.955 40.0902C200.955 40.5553 201.054 40.9227 201.251 41.1925C201.448 41.4622 201.757 41.5971 202.177 41.5971C202.605 41.5971 202.92 41.4613 203.121 41.1897C203.322 40.9181 203.422 40.5516 203.422 40.0902V35.9268C203.422 35.4654 203.322 35.0989 203.121 34.8273C202.92 34.5557 202.605 34.4199 202.177 34.4199C201.757 34.4199 201.448 34.5548 201.251 34.8245C201.054 35.0943 200.955 35.4617 200.955 35.9268V40.0902ZM204.817 42.0101V34.0069H205.571L207.251 41.0837L208.919 34.0069H209.673V42.0101H209.171V34.8999L207.502 41.999H206.977L205.286 34.9222V42.0101H204.817ZM210.588 42.0101V34.0069H211.068V40.8548L212.235 37.5843L213.524 34.0069H214.154V42.0101H213.674V34.9333L212.475 38.2485L211.157 42.0101H210.588ZM214.975 42.0101C215.101 41.8166 215.165 41.4967 215.165 41.0502V39.8056C215.165 38.8866 215.55 38.3415 216.32 38.1704C215.55 37.9918 215.165 37.4392 215.165 36.5128V35.8151C215.165 34.6096 215.738 34.0069 216.884 34.0069H218.552V42.0101H218.022V38.4327H217.191C216.699 38.4327 216.327 38.534 216.074 38.7368C215.821 38.9396 215.695 39.2921 215.695 39.7944V41.0502C215.695 41.4929 215.637 41.8129 215.522 42.0101H214.975ZM215.695 36.6132C215.695 37.123 215.816 37.4737 216.058 37.6653C216.299 37.8569 216.673 37.9527 217.179 37.9527H218.022V34.4869H216.895C216.474 34.4869 216.169 34.6041 215.979 34.8385C215.79 35.0729 215.695 35.4133 215.695 35.8598V36.6132Z" fill="white"/>
</svg>
