<svg width="30" height="30" viewBox="0 0 30 30" fill="none" xmlns="http://www.w3.org/2000/svg">
<path d="M7.36364 23.9091C5.95782 23.9091 4.81818 25.0487 4.81818 26.4545C4.81818 27.8604 5.95782 29 7.36364 29C8.76945 29 9.90909 27.8604 9.90909 26.4545C9.90909 25.0487 8.76945 23.9091 7.36364 23.9091ZM7.36364 23.9091H25.1818M7.36364 23.9091L4.81818 1H1M25.1818 23.9091C23.776 23.9091 22.6364 25.0487 22.6364 26.4545C22.6364 27.8604 23.776 29 25.1818 29C26.5876 29 27.7273 27.8604 27.7273 26.4545C27.7273 25.0487 26.5876 23.9091 25.1818 23.9091ZM5.38384 6.09091L29 8.63636L27.8687 18.8182H6.79798" stroke="white" stroke-width="2" stroke-miterlimit="10" stroke-linecap="round" stroke-linejoin="round"/>
</svg>
