<svg width="19" height="18" viewBox="0 0 19 18" fill="none" xmlns="http://www.w3.org/2000/svg">
<path d="M11.2333 16.7012C11.8393 16.7012 12.332 16.2206 12.332 15.63C12.332 15.0391 11.8393 14.5585 11.2333 14.5585C10.6278 14.5585 10.1351 15.0391 10.1351 15.63C10.1351 16.2206 10.6278 16.7012 11.2333 16.7012ZM11.2333 13.2597C12.5735 13.2597 13.6638 14.323 13.6638 15.63C13.6638 16.9371 12.5735 18 11.2333 18C9.89357 18 8.80331 16.9371 8.80331 15.63C8.80331 14.323 9.89357 13.2597 11.2333 13.2597Z" fill="var(--svg-fill)"/>
<path d="M2.43041 16.7012C3.03592 16.7012 3.52866 16.2206 3.52866 15.63C3.52866 15.0391 3.03592 14.5585 2.43041 14.5585C1.82446 14.5585 1.33171 15.0391 1.33171 15.63C1.33171 16.2206 1.82446 16.7012 2.43041 16.7012ZM2.43041 13.2597C3.77016 13.2597 4.86042 14.323 4.86042 15.63C4.86042 16.9371 3.77016 18 2.43041 18C1.09022 18 -4.57764e-05 16.9371 -4.57764e-05 15.63C-4.57764e-05 14.323 1.09022 13.2597 2.43041 13.2597Z" fill="var(--svg-fill)"/>
<path d="M1.33171 9.08908C1.33171 9.90778 1.91058 10.7919 2.84592 10.7919H12.5646C13.1555 10.7919 13.5324 10.194 13.5324 9.78266V4.15261L1.33171 5.56618V9.08908ZM0.587261 4.34483L13.5324 2.84511V1.79911C13.5324 1.51423 13.7228 1.26225 14.0025 1.17826L17.8304 0.0287823C18.1824 -0.076424 18.5544 0.115807 18.6628 0.458268C18.7706 0.801163 18.5735 1.16441 18.2219 1.27004L14.8641 2.27838V3.41314C14.8641 3.41963 14.8641 3.42569 14.8641 3.43175V9.78266C14.8641 10.8971 13.9399 12.0907 12.5646 12.0907H2.84592C1.088 12.0907 -4.3869e-05 10.533 -4.3869e-05 9.08908V4.98949C-4.3869e-05 4.66045 0.252102 4.3838 0.587261 4.34483Z" fill="var(--svg-fill)"/>
</svg>
