<svg width="22" height="22" viewBox="0 0 22 22" fill="none" xmlns="http://www.w3.org/2000/svg">
<path d="M15.8887 14.8252C15.5958 14.5322 15.1209 14.5322 14.828 14.8251C14.5351 15.118 14.5351 15.5928 14.8279 15.8857L15.8887 14.8252ZM16.0298 17.0877C16.3226 17.3806 16.7975 17.3807 17.0904 17.0878C17.3833 16.7949 17.3834 16.3201 17.0905 16.0271L16.0298 17.0877ZM20.5857 20.5857L21.1159 21.1161C21.1225 21.1095 21.1289 21.1029 21.1352 21.0961L20.5857 20.5857ZM18.5033 20.5857L17.973 21.1161L18.5033 20.5857ZM17.0159 19.0985L17.5462 18.5682V18.5682L17.0159 19.0985ZM19.0983 17.0165L18.568 17.5469L19.0983 17.0165ZM20.5857 18.5037L21.1159 17.9733L20.5857 18.5037ZM14.8338 3.9945C17.8269 6.9871 17.8269 11.839 14.8338 14.8316L15.8944 15.8924C19.4734 12.314 19.4734 6.51217 15.8944 2.93376L14.8338 3.9945ZM14.8338 14.8316C11.8407 17.8243 6.98789 17.8243 3.99479 14.8316L2.9342 15.8924C6.51308 19.4707 12.3155 19.4707 15.8944 15.8924L14.8338 14.8316ZM3.99479 14.8316C1.00174 11.839 1.00174 6.9871 3.99479 3.9945L2.9342 2.93376C-0.644734 6.51217 -0.644734 12.314 2.9342 15.8924L3.99479 14.8316ZM3.99479 3.9945C6.98789 1.00183 11.8407 1.00183 14.8338 3.9945L15.8944 2.93376C12.3155 -0.644587 6.51308 -0.644587 2.9342 2.93376L3.99479 3.9945ZM14.8279 15.8857L16.0298 17.0877L17.0905 16.0271L15.8887 14.8252L14.8279 15.8857ZM20.0554 20.0553C19.7958 20.3149 19.2932 20.3149 19.0336 20.0553L17.973 21.1161C18.8184 21.9613 20.2706 21.9613 21.1159 21.1161L20.0554 20.0553ZM19.0336 20.0553L17.5462 18.5682L16.4856 19.6289L17.973 21.1161L19.0336 20.0553ZM17.5462 18.5682C17.2867 18.3087 17.2867 17.8063 17.5462 17.5469L16.4856 16.4861C15.6402 17.3314 15.6402 18.7836 16.4856 19.6289L17.5462 18.5682ZM17.5462 17.5469C17.8058 17.2873 18.3084 17.2873 18.568 17.5469L19.6286 16.4861C18.7832 15.6409 17.331 15.6409 16.4856 16.4861L17.5462 17.5469ZM18.568 17.5469L20.0554 19.034L21.1159 17.9733L19.6286 16.4861L18.568 17.5469ZM20.0554 19.034C20.3045 19.2832 20.3317 19.7571 20.0361 20.0753L21.1352 21.0961C21.9446 20.2246 21.9717 18.8289 21.1159 17.9733L20.0554 19.034ZM14.3945 9.31811C14.3945 12.1221 12.1211 14.3954 9.31638 14.3954V15.8954C12.9493 15.8954 15.8945 12.9507 15.8945 9.31811H14.3945ZM9.31638 14.3954C6.51169 14.3954 4.23823 12.1221 4.23823 9.31811H2.73823C2.73823 12.9507 5.68347 15.8954 9.31638 15.8954V14.3954ZM4.23823 9.31811C4.23823 6.5141 6.51169 4.24082 9.31638 4.24082V2.74082C5.68347 2.74082 2.73823 5.68546 2.73823 9.31811H4.23823ZM9.31638 4.24082C12.1211 4.24082 14.3945 6.5141 14.3945 9.31811H15.8945C15.8945 5.68546 12.9493 2.74082 9.31638 2.74082V4.24082Z" fill="white"/>
</svg>
