<svg width="29" height="29" viewBox="0 0 29 29" fill="none" xmlns="http://www.w3.org/2000/svg">
<path d="M21.0909 19.6728C20.7004 19.2823 20.0672 19.2822 19.6767 19.6727C19.2861 20.0632 19.2861 20.6964 19.6766 21.0869L21.0909 19.6728ZM21.299 22.7096C21.6895 23.1001 22.3227 23.1002 22.7132 22.7097C23.1038 22.3192 23.1038 21.686 22.7133 21.2955L21.299 22.7096ZM27.4406 27.4407L28.1477 28.1479C28.1564 28.1391 28.165 28.1303 28.1734 28.1212L27.4406 27.4407ZM24.6295 27.4407L23.9224 28.1479L24.6295 27.4407ZM22.6215 25.433L23.3285 24.7259L22.6215 25.433ZM25.4327 22.6223L24.7256 23.3294L25.4327 22.6223ZM27.4406 24.63L28.1477 23.9228L27.4406 24.63ZM19.6845 5.03373C23.73 9.07863 23.73 15.6366 19.6845 19.6815L21.0986 21.0959C25.9253 16.2699 25.9253 8.44539 21.0986 3.61942L19.6845 5.03373ZM19.6845 19.6815C15.6389 23.7265 9.0797 23.7265 5.03412 19.6815L3.62001 21.0959C8.44661 25.9217 16.272 25.9217 21.0986 21.0959L19.6845 19.6815ZM5.03412 19.6815C0.988626 15.6366 0.988626 9.07863 5.03412 5.03373L3.62001 3.61942C-1.20667 8.44539 -1.20667 16.2699 3.62001 21.0959L5.03412 19.6815ZM5.03412 5.03373C9.0797 0.988755 15.6389 0.988755 19.6845 5.03373L21.0986 3.61942C16.272 -1.20647 8.44661 -1.20647 3.62001 3.61942L5.03412 5.03373ZM19.6766 21.0869L21.299 22.7096L22.7133 21.2955L21.0909 19.6728L19.6766 21.0869ZM26.7336 26.7336C26.3783 27.0888 25.6918 27.0888 25.3365 26.7336L23.9224 28.1479C25.0587 29.284 27.0114 29.284 28.1477 28.1479L26.7336 26.7336ZM25.3365 26.7336L23.3285 24.7259L21.9144 26.1402L23.9224 28.1479L25.3365 26.7336ZM23.3285 24.7259C22.9733 24.3707 22.9733 23.6846 23.3285 23.3294L21.9144 21.9151C20.778 23.0514 20.778 25.0039 21.9144 26.1402L23.3285 24.7259ZM23.3285 23.3294C23.6838 22.9742 24.3703 22.9742 24.7256 23.3294L26.1397 21.9151C25.0034 20.7789 23.0508 20.7789 21.9144 21.9151L23.3285 23.3294ZM24.7256 23.3294L26.7336 25.3371L28.1477 23.9228L26.1397 21.9151L24.7256 23.3294ZM26.7336 25.3371C27.075 25.6785 27.1112 26.326 26.7079 26.7602L28.1734 28.1212C29.2617 26.9493 29.2979 25.0729 28.1477 23.9228L26.7336 25.3371ZM19.0951 12.2294C19.0951 16.0218 16.0203 19.0963 12.2271 19.0963V21.0963C17.1246 21.0963 21.0951 17.1266 21.0951 12.2294H19.0951ZM12.2271 19.0963C8.43388 19.0963 5.35911 16.0218 5.35911 12.2294H3.35911C3.35911 17.1266 7.32959 21.0963 12.2271 21.0963V19.0963ZM5.35911 12.2294C5.35911 8.43713 8.43388 5.3626 12.2271 5.3626V3.3626C7.32959 3.3626 3.35911 7.33228 3.35911 12.2294H5.35911ZM12.2271 5.3626C16.0203 5.3626 19.0951 8.43713 19.0951 12.2294H21.0951C21.0951 7.33228 17.1246 3.3626 12.2271 3.3626V5.3626Z" fill="white"/>
</svg>
